<svg width="240" height="100" viewBox="0 0 240 100" fill="none" xmlns="http://www.w3.org/2000/svg">
<rect width="240" height="100" fill="#050202"/>
<ellipse cx="156" cy="50.6825" rx="20" ry="19.6825" fill="#A20909"/>
<path d="M76.7812 18V66H67.0312V18H76.7812ZM75.5 47.9062L73.0625 47.9688C73.0625 45.5938 73.3542 43.4167 73.9375 41.4375C74.5417 39.4375 75.3958 37.6979 76.5 36.2188C77.6042 34.7396 78.9271 33.5938 80.4688 32.7812C82.0312 31.9688 83.75 31.5625 85.625 31.5625C87.2917 31.5625 88.8125 31.8021 90.1875 32.2812C91.5625 32.7604 92.75 33.5208 93.75 34.5625C94.75 35.6042 95.5208 36.9688 96.0625 38.6562C96.6042 40.3438 96.875 42.3958 96.875 44.8125V66H87.0625V44.75C87.0625 43.3125 86.8542 42.1875 86.4375 41.375C86.0417 40.5625 85.4583 39.9896 84.6875 39.6562C83.9375 39.3229 83.0208 39.1562 81.9375 39.1562C80.6667 39.1562 79.6146 39.3854 78.7812 39.8438C77.9479 40.2812 77.2917 40.8958 76.8125 41.6875C76.3333 42.4792 75.9896 43.4062 75.7812 44.4688C75.5938 45.5312 75.5 46.6771 75.5 47.9062ZM112.781 18V66H103.031V18H112.781ZM111.5 47.9062L109.062 47.9688C109.062 45.5938 109.354 43.4167 109.938 41.4375C110.542 39.4375 111.396 37.6979 112.5 36.2188C113.604 34.7396 114.927 33.5938 116.469 32.7812C118.031 31.9688 119.75 31.5625 121.625 31.5625C123.292 31.5625 124.812 31.8021 126.188 32.2812C127.562 32.7604 128.75 33.5208 129.75 34.5625C130.75 35.6042 131.521 36.9688 132.062 38.6562C132.604 40.3438 132.875 42.3958 132.875 44.8125V66H123.062V44.75C123.062 43.3125 122.854 42.1875 122.438 41.375C122.042 40.5625 121.458 39.9896 120.688 39.6562C119.938 39.3229 119.021 39.1562 117.938 39.1562C116.667 39.1562 115.615 39.3854 114.781 39.8438C113.948 40.2812 113.292 40.8958 112.812 41.6875C112.333 42.4792 111.99 43.4062 111.781 44.4688C111.594 45.5312 111.5 46.6771 111.5 47.9062Z" fill="white"/>
<path d="M72.5625 72.1367V73.0566H67.9453V72.1367H72.5625ZM68.1211 68.4688V77H66.9902V68.4688H68.1211ZM73.5469 68.4688V77H72.4219V68.4688H73.5469ZM78.3834 77.1172C77.942 77.1172 77.5416 77.043 77.1823 76.8945C76.8268 76.7422 76.5202 76.5293 76.2623 76.2559C76.0084 75.9824 75.8131 75.6582 75.6764 75.2832C75.5397 74.9082 75.4713 74.498 75.4713 74.0527V73.8066C75.4713 73.291 75.5475 72.832 75.6998 72.4297C75.8522 72.0234 76.0592 71.6797 76.3209 71.3984C76.5827 71.1172 76.8795 70.9043 77.2116 70.7598C77.5436 70.6152 77.8873 70.543 78.2428 70.543C78.6959 70.543 79.0866 70.6211 79.4147 70.7773C79.7467 70.9336 80.0182 71.1523 80.2291 71.4336C80.4401 71.7109 80.5963 72.0391 80.6979 72.418C80.7995 72.793 80.8502 73.2031 80.8502 73.6484V74.1348H76.1159V73.25H79.7662V73.168C79.7506 72.8867 79.692 72.6133 79.5905 72.3477C79.4928 72.082 79.3366 71.8633 79.1217 71.6914C78.9069 71.5195 78.6139 71.4336 78.2428 71.4336C77.9967 71.4336 77.7702 71.4863 77.5631 71.5918C77.3561 71.6934 77.1784 71.8457 77.0299 72.0488C76.8815 72.252 76.7662 72.5 76.6842 72.793C76.6022 73.0859 76.5612 73.4238 76.5612 73.8066V74.0527C76.5612 74.3535 76.6022 74.6367 76.6842 74.9023C76.7702 75.1641 76.8932 75.3945 77.0534 75.5938C77.2174 75.793 77.4147 75.9492 77.6452 76.0625C77.8795 76.1758 78.1452 76.2324 78.442 76.2324C78.8248 76.2324 79.1491 76.1543 79.4147 75.998C79.6803 75.8418 79.9127 75.6328 80.112 75.3711L80.7682 75.8926C80.6315 76.0996 80.4577 76.2969 80.2467 76.4844C80.0358 76.6719 79.776 76.8242 79.4674 76.9414C79.1627 77.0586 78.8014 77.1172 78.3834 77.1172ZM86.2141 75.916V72.6523C86.2141 72.4023 86.1634 72.1855 86.0618 72.002C85.9641 71.8145 85.8157 71.6699 85.6165 71.5684C85.4173 71.4668 85.1712 71.416 84.8782 71.416C84.6048 71.416 84.3645 71.4629 84.1575 71.5566C83.9544 71.6504 83.7942 71.7734 83.677 71.9258C83.5638 72.0781 83.5071 72.2422 83.5071 72.418H82.4231C82.4231 72.1914 82.4817 71.9668 82.5989 71.7441C82.7161 71.5215 82.8841 71.3203 83.1028 71.1406C83.3255 70.957 83.5911 70.8125 83.8997 70.707C84.2122 70.5977 84.5598 70.543 84.9427 70.543C85.4036 70.543 85.8098 70.6211 86.1614 70.7773C86.5169 70.9336 86.7942 71.1699 86.9934 71.4863C87.1966 71.7988 87.2981 72.1914 87.2981 72.6641V75.6172C87.2981 75.8281 87.3157 76.0527 87.3509 76.291C87.3899 76.5293 87.4466 76.7344 87.5208 76.9062V77H86.3899C86.3352 76.875 86.2923 76.709 86.261 76.502C86.2298 76.291 86.2141 76.0957 86.2141 75.916ZM86.4016 73.1562L86.4134 73.918H85.3177C85.0091 73.918 84.7337 73.9434 84.4915 73.9941C84.2493 74.041 84.0462 74.1133 83.8821 74.2109C83.718 74.3086 83.593 74.4316 83.5071 74.5801C83.4212 74.7246 83.3782 74.8945 83.3782 75.0898C83.3782 75.2891 83.4231 75.4707 83.513 75.6348C83.6028 75.7988 83.7376 75.9297 83.9173 76.0273C84.1009 76.1211 84.3255 76.168 84.5911 76.168C84.9231 76.168 85.2161 76.0977 85.47 75.957C85.7239 75.8164 85.9251 75.6445 86.0735 75.4414C86.2259 75.2383 86.3079 75.041 86.3196 74.8496L86.7825 75.3711C86.7552 75.5352 86.6809 75.7168 86.5598 75.916C86.4388 76.1152 86.2766 76.3066 86.0735 76.4902C85.8743 76.6699 85.636 76.8203 85.3587 76.9414C85.0852 77.0586 84.7766 77.1172 84.4329 77.1172C84.0032 77.1172 83.6263 77.0332 83.302 76.8652C82.9817 76.6973 82.7317 76.4727 82.552 76.1914C82.3763 75.9062 82.2884 75.5879 82.2884 75.2363C82.2884 74.8965 82.3548 74.5977 82.4876 74.3398C82.6204 74.0781 82.8118 73.8613 83.0618 73.6895C83.3118 73.5137 83.6126 73.3809 83.9641 73.291C84.3157 73.2012 84.7083 73.1562 85.1419 73.1562H86.4016ZM93.3593 75.7695V68H94.4491V77H93.453L93.3593 75.7695ZM89.0937 73.9004V73.7773C89.0937 73.293 89.1523 72.8535 89.2695 72.459C89.3905 72.0605 89.5605 71.7188 89.7792 71.4336C90.0019 71.1484 90.2655 70.9297 90.5702 70.7773C90.8788 70.6211 91.2226 70.543 91.6015 70.543C91.9999 70.543 92.3476 70.6133 92.6445 70.7539C92.9452 70.8906 93.1991 71.0918 93.4062 71.3574C93.6171 71.6191 93.7831 71.9355 93.9042 72.3066C94.0253 72.6777 94.1093 73.0977 94.1562 73.5664V74.1055C94.1132 74.5703 94.0292 74.9883 93.9042 75.3594C93.7831 75.7305 93.6171 76.0469 93.4062 76.3086C93.1991 76.5703 92.9452 76.7715 92.6445 76.9121C92.3437 77.0488 91.9921 77.1172 91.5898 77.1172C91.2187 77.1172 90.8788 77.0371 90.5702 76.877C90.2655 76.7168 90.0019 76.4922 89.7792 76.2031C89.5605 75.9141 89.3905 75.5742 89.2695 75.1836C89.1523 74.7891 89.0937 74.3613 89.0937 73.9004ZM90.1835 73.7773V73.9004C90.1835 74.2168 90.2148 74.5137 90.2773 74.791C90.3437 75.0684 90.4452 75.3125 90.582 75.5234C90.7187 75.7344 90.8925 75.9004 91.1034 76.0215C91.3144 76.1387 91.5663 76.1973 91.8593 76.1973C92.2187 76.1973 92.5136 76.1211 92.7441 75.9688C92.9784 75.8164 93.1659 75.6152 93.3066 75.3652C93.4472 75.1152 93.5566 74.8438 93.6347 74.5508V73.1387C93.5878 72.9238 93.5195 72.7168 93.4296 72.5176C93.3437 72.3145 93.2304 72.1348 93.0898 71.9785C92.953 71.8184 92.7831 71.6914 92.58 71.5977C92.3808 71.5039 92.1445 71.457 91.871 71.457C91.5741 71.457 91.3183 71.5195 91.1034 71.6445C90.8925 71.7656 90.7187 71.9336 90.582 72.1484C90.4452 72.3594 90.3437 72.6055 90.2773 72.8867C90.2148 73.1641 90.1835 73.4609 90.1835 73.7773ZM102.233 72.1367V73.0566H97.6158V72.1367H102.233ZM97.7916 68.4688V77H96.6607V68.4688H97.7916ZM103.217 68.4688V77H102.092V68.4688H103.217ZM109.302 75.5352V70.6602H110.392V77H109.355L109.302 75.5352ZM109.507 74.1992L109.958 74.1875C109.958 74.6094 109.913 75 109.823 75.3594C109.737 75.7148 109.597 76.0234 109.402 76.2852C109.206 76.5469 108.95 76.752 108.634 76.9004C108.318 77.0449 107.933 77.1172 107.48 77.1172C107.171 77.1172 106.888 77.0723 106.63 76.9824C106.376 76.8926 106.157 76.7539 105.974 76.5664C105.79 76.3789 105.648 76.1348 105.546 75.834C105.448 75.5332 105.4 75.1719 105.4 74.75V70.6602H106.484V74.7617C106.484 75.0469 106.515 75.2832 106.577 75.4707C106.644 75.6543 106.732 75.8008 106.841 75.9102C106.954 76.0156 107.079 76.0898 107.216 76.1328C107.357 76.1758 107.501 76.1973 107.65 76.1973C108.111 76.1973 108.476 76.1094 108.745 75.9336C109.015 75.7539 109.208 75.5137 109.325 75.2129C109.446 74.9082 109.507 74.5703 109.507 74.1992ZM113.488 72.0137V77H112.404V70.6602H113.43L113.488 72.0137ZM113.23 73.5898L112.779 73.5723C112.783 73.1387 112.847 72.7383 112.972 72.3711C113.097 72 113.273 71.6777 113.5 71.4043C113.726 71.1309 113.996 70.9199 114.308 70.7715C114.625 70.6191 114.974 70.543 115.357 70.543C115.67 70.543 115.951 70.5859 116.201 70.6719C116.451 70.7539 116.664 70.8867 116.84 71.0703C117.019 71.2539 117.156 71.4922 117.25 71.7852C117.344 72.0742 117.39 72.4277 117.39 72.8457V77H116.301V72.834C116.301 72.502 116.252 72.2363 116.154 72.0371C116.056 71.834 115.914 71.6875 115.726 71.5977C115.539 71.5039 115.308 71.457 115.035 71.457C114.765 71.457 114.519 71.5137 114.297 71.627C114.078 71.7402 113.889 71.8965 113.728 72.0957C113.572 72.2949 113.449 72.5234 113.359 72.7812C113.273 73.0352 113.23 73.3047 113.23 73.5898ZM122.051 70.6602V71.4922H118.624V70.6602H122.051ZM119.784 69.1191H120.868V75.4297C120.868 75.6445 120.901 75.8066 120.967 75.916C121.034 76.0254 121.12 76.0977 121.225 76.1328C121.331 76.168 121.444 76.1855 121.565 76.1855C121.655 76.1855 121.749 76.1777 121.846 76.1621C121.948 76.1426 122.024 76.127 122.075 76.1152L122.081 77C121.995 77.0273 121.881 77.0527 121.741 77.0762C121.604 77.1035 121.438 77.1172 121.243 77.1172C120.977 77.1172 120.733 77.0645 120.51 76.959C120.288 76.8535 120.11 76.6777 119.977 76.4316C119.848 76.1816 119.784 75.8457 119.784 75.4238V69.1191ZM126.314 77.1172C125.872 77.1172 125.472 77.043 125.112 76.8945C124.757 76.7422 124.45 76.5293 124.193 76.2559C123.939 75.9824 123.743 75.6582 123.607 75.2832C123.47 74.9082 123.401 74.498 123.401 74.0527V73.8066C123.401 73.291 123.478 72.832 123.63 72.4297C123.782 72.0234 123.989 71.6797 124.251 71.3984C124.513 71.1172 124.81 70.9043 125.142 70.7598C125.474 70.6152 125.818 70.543 126.173 70.543C126.626 70.543 127.017 70.6211 127.345 70.7773C127.677 70.9336 127.948 71.1523 128.159 71.4336C128.37 71.7109 128.526 72.0391 128.628 72.418C128.73 72.793 128.78 73.2031 128.78 73.6484V74.1348H124.046V73.25H127.696V73.168C127.681 72.8867 127.622 72.6133 127.521 72.3477C127.423 72.082 127.267 71.8633 127.052 71.6914C126.837 71.5195 126.544 71.4336 126.173 71.4336C125.927 71.4336 125.7 71.4863 125.493 71.5918C125.286 71.6934 125.109 71.8457 124.96 72.0488C124.812 72.252 124.696 72.5 124.614 72.793C124.532 73.0859 124.491 73.4238 124.491 73.8066V74.0527C124.491 74.3535 124.532 74.6367 124.614 74.9023C124.7 75.1641 124.823 75.3945 124.984 75.5938C125.148 75.793 125.345 75.9492 125.575 76.0625C125.81 76.1758 126.075 76.2324 126.372 76.2324C126.755 76.2324 127.079 76.1543 127.345 75.998C127.61 75.8418 127.843 75.6328 128.042 75.3711L128.698 75.8926C128.562 76.0996 128.388 76.2969 128.177 76.4844C127.966 76.6719 127.706 76.8242 127.398 76.9414C127.093 77.0586 126.732 77.1172 126.314 77.1172ZM131.49 71.6562V77H130.406V70.6602H131.461L131.49 71.6562ZM133.47 70.625L133.465 71.6328C133.375 71.6133 133.289 71.6016 133.207 71.5977C133.129 71.5898 133.039 71.5859 132.937 71.5859C132.687 71.5859 132.467 71.625 132.275 71.7031C132.084 71.7812 131.922 71.8906 131.789 72.0312C131.656 72.1719 131.551 72.3398 131.472 72.5352C131.398 72.7266 131.349 72.9375 131.326 73.168L131.021 73.3438C131.021 72.9609 131.058 72.6016 131.133 72.2656C131.211 71.9297 131.33 71.6328 131.49 71.375C131.65 71.1133 131.853 70.9102 132.099 70.7656C132.349 70.6172 132.646 70.543 132.99 70.543C133.068 70.543 133.158 70.5527 133.26 70.5723C133.361 70.5879 133.431 70.6055 133.47 70.625Z" fill="white"/>
<path d="M148.887 48.2734V58H145.23V45.3203H148.664L148.887 48.2734ZM152.672 45.2266L152.613 48.6367C152.457 48.6133 152.254 48.5938 152.004 48.5781C151.754 48.5547 151.539 48.543 151.359 48.543C150.891 48.543 150.484 48.6016 150.141 48.7188C149.805 48.8281 149.523 48.9922 149.297 49.2109C149.078 49.4297 148.914 49.7031 148.805 50.0312C148.695 50.3516 148.641 50.7227 148.641 51.1445L147.949 50.8047C147.949 49.9688 148.031 49.2031 148.195 48.5078C148.359 47.8125 148.598 47.2109 148.91 46.7031C149.223 46.1875 149.605 45.7891 150.059 45.5078C150.512 45.2266 151.027 45.0859 151.605 45.0859C151.793 45.0859 151.984 45.0977 152.18 45.1211C152.375 45.1445 152.539 45.1797 152.672 45.2266ZM161.613 54.9414V45.3203H165.293V58H161.848L161.613 54.9414ZM162 52.3516L163.008 52.3281C163.008 53.1797 162.906 53.9648 162.703 54.6836C162.508 55.4023 162.211 56.0273 161.812 56.5586C161.422 57.0898 160.934 57.5039 160.348 57.8008C159.77 58.0898 159.094 58.2344 158.32 58.2344C157.695 58.2344 157.121 58.1484 156.598 57.9766C156.082 57.7969 155.637 57.5195 155.262 57.1445C154.887 56.7617 154.598 56.2734 154.395 55.6797C154.191 55.0781 154.09 54.3594 154.09 53.5234V45.3203H157.746V53.5469C157.746 53.875 157.785 54.1562 157.863 54.3906C157.949 54.6172 158.062 54.8047 158.203 54.9531C158.352 55.1016 158.531 55.2109 158.742 55.2812C158.961 55.3516 159.199 55.3867 159.457 55.3867C160.105 55.3867 160.613 55.2539 160.98 54.9883C161.355 54.7148 161.617 54.3516 161.766 53.8984C161.922 53.4375 162 52.9219 162 52.3516Z" fill="white"/>
</svg>
