<svg width="20" height="19" viewBox="0 0 20 19" fill="none" xmlns="http://www.w3.org/2000/svg">
<path d="M17.9487 2.15909H17.4359V2.59091H17.9487V2.15909Z" fill="#6C6C6C"/>
<path d="M18.4615 2.15909H17.9487V2.59091H18.4615V2.15909Z" fill="#6C6C6C"/>
<path d="M18.9744 2.15909H18.4615V2.59091H18.9744V2.15909Z" fill="#6C6C6C"/>
<path d="M19.4872 2.15909H18.9744V2.59091H19.4872V2.15909Z" fill="#6C6C6C"/>
<path d="M20 2.15909H19.4872V2.59091H20V2.15909Z" fill="#6C6C6C"/>
<path d="M17.4359 2.59091H16.9231V3.02273H17.4359V2.59091Z" fill="#6C6C6C"/>
<path d="M17.9487 2.59091H17.4359V3.02273H17.9487V2.59091Z" fill="#F6F6F6"/>
<path d="M18.4615 2.59091H17.9487V3.02273H18.4615V2.59091Z" fill="#F6F6F6"/>
<path d="M18.9744 2.59091H18.4615V3.02273H18.9744V2.59091Z" fill="#F6F6F6"/>
<path d="M19.4872 2.59091H18.9744V3.02273H19.4872V2.59091Z" fill="#F6F6F6"/>
<path d="M20 2.59091H19.4872V3.02273H20V2.59091Z" fill="#F6F6F6"/>
<path d="M16.9231 3.02274H16.4103V3.45455H16.9231V3.02274Z" fill="#6C6C6C"/>
<path d="M17.4359 3.02274H16.9231V3.45455H17.4359V3.02274Z" fill="#F6F6F6"/>
<path d="M17.9487 3.02274H17.4359V3.45455H17.9487V3.02274Z" fill="white"/>
<path d="M18.4615 3.02274H17.9487V3.45455H18.4615V3.02274Z" fill="white"/>
<path d="M18.9744 3.02274H18.4615V3.45455H18.9744V3.02274Z" fill="white"/>
<path d="M19.4872 3.02274H18.9744V3.45455H19.4872V3.02274Z" fill="white"/>
<path d="M20 3.02274H19.4872V3.45455H20V3.02274Z" fill="white"/>
<path d="M16.4103 3.45456H15.8974V3.88638H16.4103V3.45456Z" fill="#6C6C6C"/>
<path d="M16.9231 3.45456H16.4103V3.88638H16.9231V3.45456Z" fill="#F6F6F6"/>
<path d="M17.4359 3.45456H16.9231V3.88638H17.4359V3.45456Z" fill="white"/>
<path d="M17.9487 3.45456H17.4359V3.88638H17.9487V3.45456Z" fill="white"/>
<path d="M18.4615 3.45456H17.9487V3.88638H18.4615V3.45456Z" fill="white"/>
<path d="M18.9744 3.45456H18.4615V3.88638H18.9744V3.45456Z" fill="white"/>
<path d="M19.4872 3.45456H18.9744V3.88638H19.4872V3.45456Z" fill="white"/>
<path d="M20 3.45456H19.4872V3.88638H20V3.45456Z" fill="white"/>
<path d="M15.8974 3.88635H15.3846V4.31817H15.8974V3.88635Z" fill="#6C6C6C"/>
<path d="M16.4103 3.88635H15.8974V4.31817H16.4103V3.88635Z" fill="#F6F6F6"/>
<path d="M16.9231 3.88635H16.4103V4.31817H16.9231V3.88635Z" fill="white"/>
<path d="M17.4359 3.88635H16.9231V4.31817H17.4359V3.88635Z" fill="white"/>
<path d="M17.9487 3.88635H17.4359V4.31817H17.9487V3.88635Z" fill="white"/>
<path d="M18.4615 3.88635H17.9487V4.31817H18.4615V3.88635Z" fill="white"/>
<path d="M18.9744 3.88635H18.4615V4.31817H18.9744V3.88635Z" fill="white"/>
<path d="M19.4872 3.88635H18.9744V4.31817H19.4872V3.88635Z" fill="white"/>
<path d="M20 3.88635H19.4872V4.31817H20V3.88635Z" fill="white"/>
<path d="M15.8974 4.31818H15.3846V4.74999H15.8974V4.31818Z" fill="#6C6C6C"/>
<path d="M16.4103 4.31818H15.8974V4.74999H16.4103V4.31818Z" fill="#F6F6F6"/>
<path d="M16.9231 4.31818H16.4103V4.74999H16.9231V4.31818Z" fill="white"/>
<path d="M17.4359 4.31818H16.9231V4.74999H17.4359V4.31818Z" fill="white"/>
<path d="M17.9487 4.31818H17.4359V4.74999H17.9487V4.31818Z" fill="white"/>
<path d="M18.4615 4.31818H17.9487V4.74999H18.4615V4.31818Z" fill="white"/>
<path d="M18.9744 4.31818H18.4615V4.74999H18.9744V4.31818Z" fill="white"/>
<path d="M19.4872 4.31818H18.9744V4.74999H19.4872V4.31818Z" fill="white"/>
<path d="M20 4.31818H19.4872V4.74999H20V4.31818Z" fill="white"/>
<path d="M15.3846 4.75H14.8718V5.18182H15.3846V4.75Z" fill="#6C6C6C"/>
<path d="M15.8974 4.75H15.3846V5.18182H15.8974V4.75Z" fill="#F6F6F6"/>
<path d="M16.4103 4.75H15.8974V5.18182H16.4103V4.75Z" fill="white"/>
<path d="M16.9231 4.75H16.4103V5.18182H16.9231V4.75Z" fill="white"/>
<path d="M17.4359 4.75H16.9231V5.18182H17.4359V4.75Z" fill="white"/>
<path d="M17.9487 4.75H17.4359V5.18182H17.9487V4.75Z" fill="white"/>
<path d="M18.4615 4.75H17.9487V5.18182H18.4615V4.75Z" fill="white"/>
<path d="M18.9744 4.75H18.4615V5.18182H18.9744V4.75Z" fill="white"/>
<path d="M19.4872 4.75H18.9744V5.18182H19.4872V4.75Z" fill="white"/>
<path d="M20 4.75H19.4872V5.18182H20V4.75Z" fill="white"/>
<path d="M15.3846 5.18182H14.8718V5.61364H15.3846V5.18182Z" fill="#6C6C6C"/>
<path d="M15.8974 5.18182H15.3846V5.61364H15.8974V5.18182Z" fill="#F6F6F6"/>
<path d="M16.4103 5.18182H15.8974V5.61364H16.4103V5.18182Z" fill="white"/>
<path d="M16.9231 5.18182H16.4103V5.61364H16.9231V5.18182Z" fill="white"/>
<path d="M18.4615 5.18182H17.9487V5.61364H18.4615V5.18182Z" fill="white"/>
<path d="M18.9744 5.18182H18.4615V5.61364H18.9744V5.18182Z" fill="white"/>
<path d="M19.4872 5.18182H18.9744V5.61364H19.4872V5.18182Z" fill="white"/>
<path d="M15.3846 5.61365H14.8718V6.04547H15.3846V5.61365Z" fill="#6C6C6C"/>
<path d="M15.8974 5.61365H15.3846V6.04547H15.8974V5.61365Z" fill="#F6F6F6"/>
<path d="M16.4103 5.61365H15.8974V6.04547H16.4103V5.61365Z" fill="white"/>
<path d="M18.4615 5.61365H17.9487V6.04547H18.4615V5.61365Z" fill="#F6F6F6"/>
<path d="M18.9744 5.61365H18.4615V6.04547H18.9744V5.61365Z" fill="#F6F6F6"/>
<path d="M15.3846 6.04544H14.8718V6.47726H15.3846V6.04544Z" fill="#6C6C6C"/>
<path d="M15.8974 6.04544H15.3846V6.47726H15.8974V6.04544Z" fill="#F6F6F6"/>
<path d="M16.4103 6.04544H15.8974V6.47726H16.4103V6.04544Z" fill="white"/>
<path d="M18.4615 6.04544H17.9487V6.47726H18.4615V6.04544Z" fill="#F6F6F6"/>
<path d="M18.9744 6.04544H18.4615V6.47726H18.9744V6.04544Z" fill="#F6F6F6"/>
<path d="M9.74359 6.47726H9.23077V6.90908H9.74359V6.47726Z" fill="#BAB7B7"/>
<path d="M10.2564 6.47726H9.74359V6.90908H10.2564V6.47726Z" fill="#BAB7B7"/>
<path d="M10.7692 6.47726H10.2564V6.90908H10.7692V6.47726Z" fill="#BAB7B7"/>
<path d="M15.3846 6.47726H14.8718V6.90908H15.3846V6.47726Z" fill="#6C6C6C"/>
<path d="M15.8974 6.47726H15.3846V6.90908H15.8974V6.47726Z" fill="#F6F6F6"/>
<path d="M16.4103 6.47726H15.8974V6.90908H16.4103V6.47726Z" fill="#F6F6F6"/>
<path d="M18.4615 6.47726H17.9487V6.90908H18.4615V6.47726Z" fill="#F6F6F6"/>
<path d="M18.9744 6.47726H18.4615V6.90908H18.9744V6.47726Z" fill="#F6F6F6"/>
<path d="M8.20513 6.90909H7.69231V7.34091H8.20513V6.90909Z" fill="#BAB7B7"/>
<path d="M8.71795 6.90909H8.20513V7.34091H8.71795V6.90909Z" fill="#BAB7B7"/>
<path d="M9.23077 6.90909H8.71795V7.34091H9.23077V6.90909Z" fill="#BAB7B7"/>
<path d="M9.74359 6.90909H9.23077V7.34091H9.74359V6.90909Z" fill="#F6F6F6"/>
<path d="M10.2564 6.90909H9.74359V7.34091H10.2564V6.90909Z" fill="#F6F6F6"/>
<path d="M10.7692 6.90909H10.2564V7.34091H10.7692V6.90909Z" fill="#F6F6F6"/>
<path d="M11.2821 6.90909H10.7692V7.34091H11.2821V6.90909Z" fill="#BAB7B7"/>
<path d="M15.3846 6.90909H14.8718V7.34091H15.3846V6.90909Z" fill="#6C6C6C"/>
<path d="M15.8974 6.90909H15.3846V7.34091H15.8974V6.90909Z" fill="#F6F6F6"/>
<path d="M16.4103 6.90909H15.8974V7.34091H16.4103V6.90909Z" fill="white"/>
<path d="M16.9231 6.90909H16.4103V7.34091H16.9231V6.90909Z" fill="#F6F6F6"/>
<path d="M17.4359 6.90909H16.9231V7.34091H17.4359V6.90909Z" fill="#F6F6F6"/>
<path d="M17.9487 6.90909H17.4359V7.34091H17.9487V6.90909Z" fill="#F6F6F6"/>
<path d="M18.4615 6.90909H17.9487V7.34091H18.4615V6.90909Z" fill="#F6F6F6"/>
<path d="M18.9744 6.90909H18.4615V7.34091H18.9744V6.90909Z" fill="#F6F6F6"/>
<path d="M19.4872 6.90909H18.9744V7.34091H19.4872V6.90909Z" fill="white"/>
<path d="M20 6.90909H19.4872V7.34091H20V6.90909Z" fill="#F6F6F6"/>
<path d="M7.69231 7.34091H7.17949V7.77273H7.69231V7.34091Z" fill="#BAB7B7"/>
<path d="M8.20513 7.34091H7.69231V7.77273H8.20513V7.34091Z" fill="#F6F6F6"/>
<path d="M8.71795 7.34091H8.20513V7.77273H8.71795V7.34091Z" fill="#F6F6F6"/>
<path d="M9.23077 7.34091H8.71795V7.77273H9.23077V7.34091Z" fill="#F6F6F6"/>
<path d="M9.74359 7.34091H9.23077V7.77273H9.74359V7.34091Z" fill="#F2F2F2"/>
<path d="M10.2564 7.34091H9.74359V7.77273H10.2564V7.34091Z" fill="#6C6C6C"/>
<path d="M10.7692 7.34091H10.2564V7.77273H10.7692V7.34091Z" fill="#6C6C6C"/>
<path d="M11.2821 7.34091H10.7692V7.77273H11.2821V7.34091Z" fill="#F6F6F6"/>
<path d="M11.7949 7.34091H11.2821V7.77273H11.7949V7.34091Z" fill="#BAB7B7"/>
<path d="M15.3846 7.34091H14.8718V7.77273H15.3846V7.34091Z" fill="#6C6C6C"/>
<path d="M15.8974 7.34091H15.3846V7.77273H15.8974V7.34091Z" fill="#F6F6F6"/>
<path d="M16.4103 7.34091H15.8974V7.77273H16.4103V7.34091Z" fill="white"/>
<path d="M16.9231 7.34091H16.4103V7.77273H16.9231V7.34091Z" fill="white"/>
<path d="M17.4359 7.34091H16.9231V7.77273H17.4359V7.34091Z" fill="white"/>
<path d="M17.9487 7.34091H17.4359V7.77273H17.9487V7.34091Z" fill="white"/>
<path d="M18.4615 7.34091H17.9487V7.77273H18.4615V7.34091Z" fill="white"/>
<path d="M18.9744 7.34091H18.4615V7.77273H18.9744V7.34091Z" fill="white"/>
<path d="M19.4872 7.34091H18.9744V7.77273H19.4872V7.34091Z" fill="white"/>
<path d="M20 7.34091H19.4872V7.77273H20V7.34091Z" fill="white"/>
<path d="M7.17948 7.77274H6.66666V8.20455H7.17948V7.77274Z" fill="#BAB7B7"/>
<path d="M7.69231 7.77274H7.17949V8.20455H7.69231V7.77274Z" fill="#F6F6F6"/>
<path d="M8.20513 7.77274H7.69231V8.20455H8.20513V7.77274Z" fill="white"/>
<path d="M8.71795 7.77274H8.20513V8.20455H8.71795V7.77274Z" fill="white"/>
<path d="M9.23077 7.77274H8.71795V8.20455H9.23077V7.77274Z" fill="#F2F2F2"/>
<path d="M9.74359 7.77274H9.23077V8.20455H9.74359V7.77274Z" fill="#6C6C6C"/>
<path d="M11.2821 7.77274H10.7692V8.20455H11.2821V7.77274Z" fill="#6C6C6C"/>
<path d="M11.7949 7.77274H11.2821V8.20455H11.7949V7.77274Z" fill="#F2F2F2"/>
<path d="M15.3846 7.77274H14.8718V8.20455H15.3846V7.77274Z" fill="#6C6C6C"/>
<path d="M15.8974 7.77274H15.3846V8.20455H15.8974V7.77274Z" fill="#F6F6F6"/>
<path d="M16.4103 7.77274H15.8974V8.20455H16.4103V7.77274Z" fill="white"/>
<path d="M16.9231 7.77274H16.4103V8.20455H16.9231V7.77274Z" fill="white"/>
<path d="M17.4359 7.77274H16.9231V8.20455H17.4359V7.77274Z" fill="white"/>
<path d="M17.9487 7.77274H17.4359V8.20455H17.9487V7.77274Z" fill="white"/>
<path d="M18.4615 7.77274H17.9487V8.20455H18.4615V7.77274Z" fill="white"/>
<path d="M18.9744 7.77274H18.4615V8.20455H18.9744V7.77274Z" fill="white"/>
<path d="M19.4872 7.77274H18.9744V8.20455H19.4872V7.77274Z" fill="white"/>
<path d="M20 7.77274H19.4872V8.20455H20V7.77274Z" fill="white"/>
<path d="M7.17948 8.20456H6.66666V8.63638H7.17948V8.20456Z" fill="#BAB7B7"/>
<path d="M7.69231 8.20456H7.17949V8.63638H7.69231V8.20456Z" fill="#F6F6F6"/>
<path d="M8.20513 8.20456H7.69231V8.63638H8.20513V8.20456Z" fill="white"/>
<path d="M8.71795 8.20456H8.20513V8.63638H8.71795V8.20456Z" fill="#F2F2F2"/>
<path d="M9.23077 8.20456H8.71795V8.63638H9.23077V8.20456Z" fill="#6C6C6C"/>
<path d="M11.2821 8.20456H10.7692V8.63638H11.2821V8.20456Z" fill="#6C6C6C"/>
<path d="M11.7949 8.20456H11.2821V8.63638H11.7949V8.20456Z" fill="#F2F2F2"/>
<path d="M12.3077 8.20456H11.7949V8.63638H12.3077V8.20456Z" fill="#4E4E4E"/>
<path d="M12.8205 8.20456H12.3077V8.63638H12.8205V8.20456Z" fill="#4E4E4E"/>
<path d="M13.3333 8.20456H12.8205V8.63638H13.3333V8.20456Z" fill="#4E4E4E"/>
<path d="M15.3846 8.20456H14.8718V8.63638H15.3846V8.20456Z" fill="#6C6C6C"/>
<path d="M15.8974 8.20456H15.3846V8.63638H15.8974V8.20456Z" fill="#F6F6F6"/>
<path d="M16.4103 8.20456H15.8974V8.63638H16.4103V8.20456Z" fill="white"/>
<path d="M16.9231 8.20456H16.4103V8.63638H16.9231V8.20456Z" fill="white"/>
<path d="M17.4359 8.20456H16.9231V8.63638H17.4359V8.20456Z" fill="white"/>
<path d="M17.9487 8.20456H17.4359V8.63638H17.9487V8.20456Z" fill="white"/>
<path d="M18.4615 8.20456H17.9487V8.63638H18.4615V8.20456Z" fill="white"/>
<path d="M18.9744 8.20456H18.4615V8.63638H18.9744V8.20456Z" fill="white"/>
<path d="M19.4872 8.20456H18.9744V8.63638H19.4872V8.20456Z" fill="white"/>
<path d="M20 8.20456H19.4872V8.63638H20V8.20456Z" fill="white"/>
<path d="M7.17948 8.63635H6.66666V9.06817H7.17948V8.63635Z" fill="#BAB7B7"/>
<path d="M7.69231 8.63635H7.17949V9.06817H7.69231V8.63635Z" fill="#F6F6F6"/>
<path d="M8.20513 8.63635H7.69231V9.06817H8.20513V8.63635Z" fill="white"/>
<path d="M8.71795 8.63635H8.20513V9.06817H8.71795V8.63635Z" fill="#F2F2F2"/>
<path d="M9.23077 8.63635H8.71795V9.06817H9.23077V8.63635Z" fill="#6C6C6C"/>
<path d="M10.7692 8.63635H10.2564V9.06817H10.7692V8.63635Z" fill="#4E4E4E"/>
<path d="M11.2821 8.63635H10.7692V9.06817H11.2821V8.63635Z" fill="#6C6C6C"/>
<path d="M11.7949 8.63635H11.2821V9.06817H11.7949V8.63635Z" fill="#F2F2F2"/>
<path d="M12.3077 8.63635H11.7949V9.06817H12.3077V8.63635Z" fill="#4E4E4E"/>
<path d="M13.3333 8.63635H12.8205V9.06817H13.3333V8.63635Z" fill="#4E4E4E"/>
<path d="M13.8462 8.63635H13.3333V9.06817H13.8462V8.63635Z" fill="#4E4E4E"/>
<path d="M15.3846 8.63635H14.8718V9.06817H15.3846V8.63635Z" fill="#6C6C6C"/>
<path d="M15.8974 8.63635H15.3846V9.06817H15.8974V8.63635Z" fill="#F6F6F6"/>
<path d="M16.4103 8.63635H15.8974V9.06817H16.4103V8.63635Z" fill="#F6F6F6"/>
<path d="M16.9231 8.63635H16.4103V9.06817H16.9231V8.63635Z" fill="white"/>
<path d="M17.4359 8.63635H16.9231V9.06817H17.4359V8.63635Z" fill="white"/>
<path d="M17.9487 8.63635H17.4359V9.06817H17.9487V8.63635Z" fill="white"/>
<path d="M18.4615 8.63635H17.9487V9.06817H18.4615V8.63635Z" fill="white"/>
<path d="M18.9744 8.63635H18.4615V9.06817H18.9744V8.63635Z" fill="white"/>
<path d="M19.4872 8.63635H18.9744V9.06817H19.4872V8.63635Z" fill="white"/>
<path d="M20 8.63635H19.4872V9.06817H20V8.63635Z" fill="white"/>
<path d="M6.66667 9.06818H6.15385V9.5H6.66667V9.06818Z" fill="#BAB7B7"/>
<path d="M7.17948 9.06818H6.66666V9.5H7.17948V9.06818Z" fill="#F6F6F6"/>
<path d="M7.69231 9.06818H7.17949V9.5H7.69231V9.06818Z" fill="white"/>
<path d="M8.20513 9.06818H7.69231V9.5H8.20513V9.06818Z" fill="white"/>
<path d="M8.71795 9.06818H8.20513V9.5H8.71795V9.06818Z" fill="#F2F2F2"/>
<path d="M9.23077 9.06818H8.71795V9.5H9.23077V9.06818Z" fill="#6C6C6C"/>
<path d="M10.7692 9.06818H10.2564V9.5H10.7692V9.06818Z" fill="#6C6C6C"/>
<path d="M11.2821 9.06818H10.7692V9.5H11.2821V9.06818Z" fill="#F2F2F2"/>
<path d="M11.7949 9.06818H11.2821V9.5H11.7949V9.06818Z" fill="#4E4E4E"/>
<path d="M13.8462 9.06818H13.3333V9.5H13.8462V9.06818Z" fill="#4E4E4E"/>
<path d="M15.8974 9.06818H15.3846V9.5H15.8974V9.06818Z" fill="#6C6C6C"/>
<path d="M16.4103 9.06818H15.8974V9.5H16.4103V9.06818Z" fill="#F6F6F6"/>
<path d="M16.9231 9.06818H16.4103V9.5H16.9231V9.06818Z" fill="#F6F6F6"/>
<path d="M17.4359 9.06818H16.9231V9.5H17.4359V9.06818Z" fill="white"/>
<path d="M17.9487 9.06818H17.4359V9.5H17.9487V9.06818Z" fill="white"/>
<path d="M18.4615 9.06818H17.9487V9.5H18.4615V9.06818Z" fill="white"/>
<path d="M18.9744 9.06818H18.4615V9.5H18.9744V9.06818Z" fill="white"/>
<path d="M19.4872 9.06818H18.9744V9.5H19.4872V9.06818Z" fill="white"/>
<path d="M20 9.06818H19.4872V9.5H20V9.06818Z" fill="white"/>
<path d="M6.66667 9.5H6.15385V9.93182H6.66667V9.5Z" fill="#BAB7B7"/>
<path d="M7.17948 9.5H6.66666V9.93182H7.17948V9.5Z" fill="#F6F6F6"/>
<path d="M7.69231 9.5H7.17949V9.93182H7.69231V9.5Z" fill="white"/>
<path d="M8.20513 9.5H7.69231V9.93182H8.20513V9.5Z" fill="white"/>
<path d="M8.71795 9.5H8.20513V9.93182H8.71795V9.5Z" fill="#F2F2F2"/>
<path d="M9.23077 9.5H8.71795V9.93182H9.23077V9.5Z" fill="#6C6C6C"/>
<path d="M10.2564 9.5H9.74359V9.93182H10.2564V9.5Z" fill="#4E4E4E"/>
<path d="M10.7692 9.5H10.2564V9.93182H10.7692V9.5Z" fill="#4E4E4E"/>
<path d="M11.2821 9.5H10.7692V9.93182H11.2821V9.5Z" fill="#4E4E4E"/>
<path d="M11.7949 9.5H11.2821V9.93182H11.7949V9.5Z" fill="#4E4E4E"/>
<path d="M16.4103 9.5H15.8974V9.93182H16.4103V9.5Z" fill="#6C6C6C"/>
<path d="M16.9231 9.5H16.4103V9.93182H16.9231V9.5Z" fill="#F6F6F6"/>
<path d="M17.4359 9.5H16.9231V9.93182H17.4359V9.5Z" fill="#F6F6F6"/>
<path d="M17.9487 9.5H17.4359V9.93182H17.9487V9.5Z" fill="#F6F6F6"/>
<path d="M18.4615 9.5H17.9487V9.93182H18.4615V9.5Z" fill="white"/>
<path d="M18.9744 9.5H18.4615V9.93182H18.9744V9.5Z" fill="white"/>
<path d="M19.4872 9.5H18.9744V9.93182H19.4872V9.5Z" fill="white"/>
<path d="M20 9.5H19.4872V9.93182H20V9.5Z" fill="#F6F6F6"/>
<path d="M6.66667 9.93182H6.15385V10.3636H6.66667V9.93182Z" fill="#BAB7B7"/>
<path d="M7.17948 9.93182H6.66666V10.3636H7.17948V9.93182Z" fill="#F6F6F6"/>
<path d="M7.69231 9.93182H7.17949V10.3636H7.69231V9.93182Z" fill="white"/>
<path d="M8.20513 9.93182H7.69231V10.3636H8.20513V9.93182Z" fill="white"/>
<path d="M8.71795 9.93182H8.20513V10.3636H8.71795V9.93182Z" fill="white"/>
<path d="M9.23077 9.93182H8.71795V10.3636H9.23077V9.93182Z" fill="#F2F2F2"/>
<path d="M9.74359 9.93182H9.23077V10.3636H9.74359V9.93182Z" fill="#6C6C6C"/>
<path d="M10.2564 9.93182H9.74359V10.3636H10.2564V9.93182Z" fill="#4E4E4E"/>
<path d="M10.7692 9.93182H10.2564V10.3636H10.7692V9.93182Z" fill="#4E4E4E"/>
<path d="M11.2821 9.93182H10.7692V10.3636H11.2821V9.93182Z" fill="#4E4E4E"/>
<path d="M11.7949 9.93182H11.2821V10.3636H11.7949V9.93182Z" fill="#4E4E4E"/>
<path d="M16.9231 9.93182H16.4103V10.3636H16.9231V9.93182Z" fill="#6C6C6C"/>
<path d="M17.4359 9.93182H16.9231V10.3636H17.4359V9.93182Z" fill="#F6F6F6"/>
<path d="M17.9487 9.93182H17.4359V10.3636H17.9487V9.93182Z" fill="#F6F6F6"/>
<path d="M18.4615 9.93182H17.9487V10.3636H18.4615V9.93182Z" fill="#F6F6F6"/>
<path d="M18.9744 9.93182H18.4615V10.3636H18.9744V9.93182Z" fill="#F6F6F6"/>
<path d="M19.4872 9.93182H18.9744V10.3636H19.4872V9.93182Z" fill="#F6F6F6"/>
<path d="M20 9.93182H19.4872V10.3636H20V9.93182Z" fill="#F6F6F6"/>
<path d="M6.66667 10.3636H6.15385V10.7955H6.66667V10.3636Z" fill="#BAB7B7"/>
<path d="M7.17948 10.3636H6.66666V10.7955H7.17948V10.3636Z" fill="#F6F6F6"/>
<path d="M7.69231 10.3636H7.17949V10.7955H7.69231V10.3636Z" fill="white"/>
<path d="M8.20513 10.3636H7.69231V10.7955H8.20513V10.3636Z" fill="white"/>
<path d="M8.71795 10.3636H8.20513V10.7955H8.71795V10.3636Z" fill="white"/>
<path d="M9.23077 10.3636H8.71795V10.7955H9.23077V10.3636Z" fill="#F2F2F2"/>
<path d="M9.74359 10.3636H9.23077V10.7955H9.74359V10.3636Z" fill="#6C6C6C"/>
<path d="M10.2564 10.3636H9.74359V10.7955H10.2564V10.3636Z" fill="#4E4E4E"/>
<path d="M10.7692 10.3636H10.2564V10.7955H10.7692V10.3636Z" fill="#4E4E4E"/>
<path d="M11.2821 10.3636H10.7692V10.7955H11.2821V10.3636Z" fill="#4E4E4E"/>
<path d="M11.7949 10.3636H11.2821V10.7955H11.7949V10.3636Z" fill="#4E4E4E"/>
<path d="M12.3077 10.3636H11.7949V10.7955H12.3077V10.3636Z" fill="#4E4E4E"/>
<path d="M16.9231 10.3636H16.4103V10.7955H16.9231V10.3636Z" fill="#4E4E4E"/>
<path d="M17.4359 10.3636H16.9231V10.7955H17.4359V10.3636Z" fill="#6C6C6C"/>
<path d="M17.9487 10.3636H17.4359V10.7955H17.9487V10.3636Z" fill="#6C6C6C"/>
<path d="M18.4615 10.3636H17.9487V10.7955H18.4615V10.3636Z" fill="#F6F6F6"/>
<path d="M18.9744 10.3636H18.4615V10.7955H18.9744V10.3636Z" fill="#F6F6F6"/>
<path d="M19.4872 10.3636H18.9744V10.7955H19.4872V10.3636Z" fill="#F6F6F6"/>
<path d="M20 10.3636H19.4872V10.7955H20V10.3636Z" fill="#6C6C6C"/>
<path d="M6.66667 10.7954H6.15385V11.2273H6.66667V10.7954Z" fill="#BAB7B7"/>
<path d="M7.17948 10.7954H6.66666V11.2273H7.17948V10.7954Z" fill="#F6F6F6"/>
<path d="M7.69231 10.7954H7.17949V11.2273H7.69231V10.7954Z" fill="white"/>
<path d="M8.20513 10.7954H7.69231V11.2273H8.20513V10.7954Z" fill="white"/>
<path d="M8.71795 10.7954H8.20513V11.2273H8.71795V10.7954Z" fill="white"/>
<path d="M9.23077 10.7954H8.71795V11.2273H9.23077V10.7954Z" fill="white"/>
<path d="M9.74359 10.7954H9.23077V11.2273H9.74359V10.7954Z" fill="#F2F2F2"/>
<path d="M10.2564 10.7954H9.74359V11.2273H10.2564V10.7954Z" fill="#6C6C6C"/>
<path d="M10.7692 10.7954H10.2564V11.2273H10.7692V10.7954Z" fill="#4E4E4E"/>
<path d="M11.2821 10.7954H10.7692V11.2273H11.2821V10.7954Z" fill="#4E4E4E"/>
<path d="M11.7949 10.7954H11.2821V11.2273H11.7949V10.7954Z" fill="#4E4E4E"/>
<path d="M12.3077 10.7954H11.7949V11.2273H12.3077V10.7954Z" fill="#4E4E4E"/>
<path d="M16.9231 10.7954H16.4103V11.2273H16.9231V10.7954Z" fill="#4E4E4E"/>
<path d="M17.4359 10.7954H16.9231V11.2273H17.4359V10.7954Z" fill="#6C6C6C"/>
<path d="M17.9487 10.7954H17.4359V11.2273H17.9487V10.7954Z" fill="#F6F6F6"/>
<path d="M18.4615 10.7954H17.9487V11.2273H18.4615V10.7954Z" fill="#6C6C6C"/>
<path d="M18.9744 10.7954H18.4615V11.2273H18.9744V10.7954Z" fill="#6C6C6C"/>
<path d="M19.4872 10.7954H18.9744V11.2273H19.4872V10.7954Z" fill="#6C6C6C"/>
<path d="M20 10.7954H19.4872V11.2273H20V10.7954Z" fill="#F2F2F2"/>
<path d="M6.66667 11.2273H6.15385V11.6591H6.66667V11.2273Z" fill="#BAB7B7"/>
<path d="M7.17948 11.2273H6.66666V11.6591H7.17948V11.2273Z" fill="#F6F6F6"/>
<path d="M7.69231 11.2273H7.17949V11.6591H7.69231V11.2273Z" fill="white"/>
<path d="M8.20513 11.2273H7.69231V11.6591H8.20513V11.2273Z" fill="white"/>
<path d="M8.71795 11.2273H8.20513V11.6591H8.71795V11.2273Z" fill="white"/>
<path d="M9.23077 11.2273H8.71795V11.6591H9.23077V11.2273Z" fill="white"/>
<path d="M9.74359 11.2273H9.23077V11.6591H9.74359V11.2273Z" fill="#F2F2F2"/>
<path d="M10.2564 11.2273H9.74359V11.6591H10.2564V11.2273Z" fill="#6C6C6C"/>
<path d="M10.7692 11.2273H10.2564V11.6591H10.7692V11.2273Z" fill="#4E4E4E"/>
<path d="M11.2821 11.2273H10.7692V11.6591H11.2821V11.2273Z" fill="#4E4E4E"/>
<path d="M11.7949 11.2273H11.2821V11.6591H11.7949V11.2273Z" fill="#4E4E4E"/>
<path d="M12.3077 11.2273H11.7949V11.6591H12.3077V11.2273Z" fill="#4E4E4E"/>
<path d="M12.8205 11.2273H12.3077V11.6591H12.8205V11.2273Z" fill="#4E4E4E"/>
<path d="M13.3333 11.2273H12.8205V11.6591H13.3333V11.2273Z" fill="#4E4E4E"/>
<path d="M13.8462 11.2273H13.3333V11.6591H13.8462V11.2273Z" fill="#4E4E4E"/>
<path d="M14.359 11.2273H13.8462V11.6591H14.359V11.2273Z" fill="#4E4E4E"/>
<path d="M14.8718 11.2273H14.359V11.6591H14.8718V11.2273Z" fill="#4E4E4E"/>
<path d="M15.3846 11.2273H14.8718V11.6591H15.3846V11.2273Z" fill="#4E4E4E"/>
<path d="M15.8974 11.2273H15.3846V11.6591H15.8974V11.2273Z" fill="#6C6C6C"/>
<path d="M16.4103 11.2273H15.8974V11.6591H16.4103V11.2273Z" fill="#6C6C6C"/>
<path d="M16.9231 11.2273H16.4103V11.6591H16.9231V11.2273Z" fill="#6C6C6C"/>
<path d="M17.4359 11.2273H16.9231V11.6591H17.4359V11.2273Z" fill="#F6F6F6"/>
<path d="M17.9487 11.2273H17.4359V11.6591H17.9487V11.2273Z" fill="white"/>
<path d="M18.4615 11.2273H17.9487V11.6591H18.4615V11.2273Z" fill="#F2F2F2"/>
<path d="M18.9744 11.2273H18.4615V11.6591H18.9744V11.2273Z" fill="#F2F2F2"/>
<path d="M19.4872 11.2273H18.9744V11.6591H19.4872V11.2273Z" fill="#F2F2F2"/>
<path d="M20 11.2273H19.4872V11.6591H20V11.2273Z" fill="white"/>
<path d="M6.66667 11.6591H6.15385V12.0909H6.66667V11.6591Z" fill="#BAB7B7"/>
<path d="M7.17948 11.6591H6.66666V12.0909H7.17948V11.6591Z" fill="#F6F6F6"/>
<path d="M7.69231 11.6591H7.17949V12.0909H7.69231V11.6591Z" fill="white"/>
<path d="M8.20513 11.6591H7.69231V12.0909H8.20513V11.6591Z" fill="white"/>
<path d="M8.71795 11.6591H8.20513V12.0909H8.71795V11.6591Z" fill="white"/>
<path d="M9.23077 11.6591H8.71795V12.0909H9.23077V11.6591Z" fill="#F6F6F6"/>
<path d="M9.74359 11.6591H9.23077V12.0909H9.74359V11.6591Z" fill="white"/>
<path d="M10.2564 11.6591H9.74359V12.0909H10.2564V11.6591Z" fill="#F2F2F2"/>
<path d="M10.7692 11.6591H10.2564V12.0909H10.7692V11.6591Z" fill="#6C6C6C"/>
<path d="M11.2821 11.6591H10.7692V12.0909H11.2821V11.6591Z" fill="#4E4E4E"/>
<path d="M11.7949 11.6591H11.2821V12.0909H11.7949V11.6591Z" fill="#4E4E4E"/>
<path d="M12.3077 11.6591H11.7949V12.0909H12.3077V11.6591Z" fill="#4E4E4E"/>
<path d="M12.8205 11.6591H12.3077V12.0909H12.8205V11.6591Z" fill="#4E4E4E"/>
<path d="M13.3333 11.6591H12.8205V12.0909H13.3333V11.6591Z" fill="#4E4E4E"/>
<path d="M13.8462 11.6591H13.3333V12.0909H13.8462V11.6591Z" fill="#6C6C6C"/>
<path d="M14.359 11.6591H13.8462V12.0909H14.359V11.6591Z" fill="#6C6C6C"/>
<path d="M14.8718 11.6591H14.359V12.0909H14.8718V11.6591Z" fill="#6C6C6C"/>
<path d="M15.3846 11.6591H14.8718V12.0909H15.3846V11.6591Z" fill="#6C6C6C"/>
<path d="M15.8974 11.6591H15.3846V12.0909H15.8974V11.6591Z" fill="#F6F6F6"/>
<path d="M16.4103 11.6591H15.8974V12.0909H16.4103V11.6591Z" fill="#F6F6F6"/>
<path d="M16.9231 11.6591H16.4103V12.0909H16.9231V11.6591Z" fill="#F6F6F6"/>
<path d="M17.4359 11.6591H16.9231V12.0909H17.4359V11.6591Z" fill="white"/>
<path d="M17.9487 11.6591H17.4359V12.0909H17.9487V11.6591Z" fill="#F6F6F6"/>
<path d="M18.4615 11.6591H17.9487V12.0909H18.4615V11.6591Z" fill="white"/>
<path d="M18.9744 11.6591H18.4615V12.0909H18.9744V11.6591Z" fill="white"/>
<path d="M19.4872 11.6591H18.9744V12.0909H19.4872V11.6591Z" fill="white"/>
<path d="M20 11.6591H19.4872V12.0909H20V11.6591Z" fill="white"/>
<path d="M6.66667 12.0909H6.15385V12.5227H6.66667V12.0909Z" fill="#BAB7B7"/>
<path d="M7.17948 12.0909H6.66666V12.5227H7.17948V12.0909Z" fill="#F6F6F6"/>
<path d="M7.69231 12.0909H7.17949V12.5227H7.69231V12.0909Z" fill="#F6F6F6"/>
<path d="M8.20513 12.0909H7.69231V12.5227H8.20513V12.0909Z" fill="white"/>
<path d="M8.71795 12.0909H8.20513V12.5227H8.71795V12.0909Z" fill="white"/>
<path d="M9.23077 12.0909H8.71795V12.5227H9.23077V12.0909Z" fill="#F6F6F6"/>
<path d="M9.74359 12.0909H9.23077V12.5227H9.74359V12.0909Z" fill="white"/>
<path d="M10.2564 12.0909H9.74359V12.5227H10.2564V12.0909Z" fill="white"/>
<path d="M10.7692 12.0909H10.2564V12.5227H10.7692V12.0909Z" fill="#F2F2F2"/>
<path d="M11.2821 12.0909H10.7692V12.5227H11.2821V12.0909Z" fill="#6C6C6C"/>
<path d="M11.7949 12.0909H11.2821V12.5227H11.7949V12.0909Z" fill="#6C6C6C"/>
<path d="M12.3077 12.0909H11.7949V12.5227H12.3077V12.0909Z" fill="#6C6C6C"/>
<path d="M12.8205 12.0909H12.3077V12.5227H12.8205V12.0909Z" fill="#6C6C6C"/>
<path d="M13.3333 12.0909H12.8205V12.5227H13.3333V12.0909Z" fill="#6C6C6C"/>
<path d="M13.8462 12.0909H13.3333V12.5227H13.8462V12.0909Z" fill="#F6F6F6"/>
<path d="M14.359 12.0909H13.8462V12.5227H14.359V12.0909Z" fill="#F6F6F6"/>
<path d="M14.8718 12.0909H14.359V12.5227H14.8718V12.0909Z" fill="#F6F6F6"/>
<path d="M15.3846 12.0909H14.8718V12.5227H15.3846V12.0909Z" fill="#F6F6F6"/>
<path d="M15.8974 12.0909H15.3846V12.5227H15.8974V12.0909Z" fill="white"/>
<path d="M16.4103 12.0909H15.8974V12.5227H16.4103V12.0909Z" fill="white"/>
<path d="M16.9231 12.0909H16.4103V12.5227H16.9231V12.0909Z" fill="white"/>
<path d="M17.4359 12.0909H16.9231V12.5227H17.4359V12.0909Z" fill="white"/>
<path d="M17.9487 12.0909H17.4359V12.5227H17.9487V12.0909Z" fill="#F6F6F6"/>
<path d="M18.4615 12.0909H17.9487V12.5227H18.4615V12.0909Z" fill="white"/>
<path d="M18.9744 12.0909H18.4615V12.5227H18.9744V12.0909Z" fill="#F6F6F6"/>
<path d="M19.4872 12.0909H18.9744V12.5227H19.4872V12.0909Z" fill="white"/>
<path d="M20 12.0909H19.4872V12.5227H20V12.0909Z" fill="white"/>
<path d="M7.17948 12.5227H6.66666V12.9546H7.17948V12.5227Z" fill="#BAB7B7"/>
<path d="M7.69231 12.5227H7.17949V12.9546H7.69231V12.5227Z" fill="#F6F6F6"/>
<path d="M8.20513 12.5227H7.69231V12.9546H8.20513V12.5227Z" fill="white"/>
<path d="M8.71795 12.5227H8.20513V12.9546H8.71795V12.5227Z" fill="white"/>
<path d="M9.23077 12.5227H8.71795V12.9546H9.23077V12.5227Z" fill="white"/>
<path d="M9.74359 12.5227H9.23077V12.9546H9.74359V12.5227Z" fill="#F6F6F6"/>
<path d="M10.2564 12.5227H9.74359V12.9546H10.2564V12.5227Z" fill="white"/>
<path d="M10.7692 12.5227H10.2564V12.9546H10.7692V12.5227Z" fill="white"/>
<path d="M11.2821 12.5227H10.7692V12.9546H11.2821V12.5227Z" fill="white"/>
<path d="M11.7949 12.5227H11.2821V12.9546H11.7949V12.5227Z" fill="white"/>
<path d="M12.3077 12.5227H11.7949V12.9546H12.3077V12.5227Z" fill="white"/>
<path d="M12.8205 12.5227H12.3077V12.9546H12.8205V12.5227Z" fill="#BAB7B7"/>
<path d="M13.3333 12.5227H12.8205V12.9546H13.3333V12.5227Z" fill="#BAB7B7"/>
<path d="M13.8462 12.5227H13.3333V12.9546H13.8462V12.5227Z" fill="#BAB7B7"/>
<path d="M14.359 12.5227H13.8462V12.9546H14.359V12.5227Z" fill="#BAB7B7"/>
<path d="M14.8718 12.5227H14.359V12.9546H14.8718V12.5227Z" fill="#BAB7B7"/>
<path d="M15.3846 12.5227H14.8718V12.9546H15.3846V12.5227Z" fill="#BAB7B7"/>
<path d="M15.8974 12.5227H15.3846V12.9546H15.8974V12.5227Z" fill="#BAB7B7"/>
<path d="M16.4103 12.5227H15.8974V12.9546H16.4103V12.5227Z" fill="#F6F6F6"/>
<path d="M16.9231 12.5227H16.4103V12.9546H16.9231V12.5227Z" fill="#F6F6F6"/>
<path d="M17.4359 12.5227H16.9231V12.9546H17.4359V12.5227Z" fill="white"/>
<path d="M17.9487 12.5227H17.4359V12.9546H17.9487V12.5227Z" fill="white"/>
<path d="M18.4615 12.5227H17.9487V12.9546H18.4615V12.5227Z" fill="#F6F6F6"/>
<path d="M18.9744 12.5227H18.4615V12.9546H18.9744V12.5227Z" fill="white"/>
<path d="M19.4872 12.5227H18.9744V12.9546H19.4872V12.5227Z" fill="white"/>
<path d="M20 12.5227H19.4872V12.9546H20V12.5227Z" fill="white"/>
<path d="M7.17948 12.9546H6.66666V13.3864H7.17948V12.9546Z" fill="#BAB7B7"/>
<path d="M7.69231 12.9546H7.17949V13.3864H7.69231V12.9546Z" fill="#F6F6F6"/>
<path d="M8.20513 12.9546H7.69231V13.3864H8.20513V12.9546Z" fill="#F6F6F6"/>
<path d="M8.71795 12.9546H8.20513V13.3864H8.71795V12.9546Z" fill="white"/>
<path d="M9.23077 12.9546H8.71795V13.3864H9.23077V12.9546Z" fill="white"/>
<path d="M9.74359 12.9546H9.23077V13.3864H9.74359V12.9546Z" fill="white"/>
<path d="M10.2564 12.9546H9.74359V13.3864H10.2564V12.9546Z" fill="white"/>
<path d="M10.7692 12.9546H10.2564V13.3864H10.7692V12.9546Z" fill="white"/>
<path d="M11.2821 12.9546H10.7692V13.3864H11.2821V12.9546Z" fill="#BAB7B7"/>
<path d="M11.7949 12.9546H11.2821V13.3864H11.7949V12.9546Z" fill="#BAB7B7"/>
<path d="M12.3077 12.9546H11.7949V13.3864H12.3077V12.9546Z" fill="#BAB7B7"/>
<path d="M12.8205 12.9546H12.3077V13.3864H12.8205V12.9546Z" fill="#6C6C6C"/>
<path d="M13.3333 12.9546H12.8205V13.3864H13.3333V12.9546Z" fill="#6C6C6C"/>
<path d="M13.8462 12.9546H13.3333V13.3864H13.8462V12.9546Z" fill="#6C6C6C"/>
<path d="M14.359 12.9546H13.8462V13.3864H14.359V12.9546Z" fill="#6C6C6C"/>
<path d="M14.8718 12.9546H14.359V13.3864H14.8718V12.9546Z" fill="#6C6C6C"/>
<path d="M15.3846 12.9546H14.8718V13.3864H15.3846V12.9546Z" fill="#6C6C6C"/>
<path d="M15.8974 12.9546H15.3846V13.3864H15.8974V12.9546Z" fill="#6C6C6C"/>
<path d="M16.4103 12.9546H15.8974V13.3864H16.4103V12.9546Z" fill="white"/>
<path d="M16.9231 12.9546H16.4103V13.3864H16.9231V12.9546Z" fill="white"/>
<path d="M17.4359 12.9546H16.9231V13.3864H17.4359V12.9546Z" fill="white"/>
<path d="M17.9487 12.9546H17.4359V13.3864H17.9487V12.9546Z" fill="white"/>
<path d="M18.4615 12.9546H17.9487V13.3864H18.4615V12.9546Z" fill="white"/>
<path d="M18.9744 12.9546H18.4615V13.3864H18.9744V12.9546Z" fill="white"/>
<path d="M19.4872 12.9546H18.9744V13.3864H19.4872V12.9546Z" fill="white"/>
<path d="M20 12.9546H19.4872V13.3864H20V12.9546Z" fill="white"/>
<path d="M1.53846 13.3864H1.02564V13.8182H1.53846V13.3864Z" fill="#6C6C6C"/>
<path d="M2.05128 13.3864H1.53846V13.8182H2.05128V13.3864Z" fill="#6C6C6C"/>
<path d="M2.56411 13.3864H2.05128V13.8182H2.56411V13.3864Z" fill="#6C6C6C"/>
<path d="M3.07692 13.3864H2.5641V13.8182H3.07692V13.3864Z" fill="#6C6C6C"/>
<path d="M7.69231 13.3864H7.17949V13.8182H7.69231V13.3864Z" fill="#BAB7B7"/>
<path d="M8.20513 13.3864H7.69231V13.8182H8.20513V13.3864Z" fill="#F6F6F6"/>
<path d="M8.71795 13.3864H8.20513V13.8182H8.71795V13.3864Z" fill="#F6F6F6"/>
<path d="M9.23077 13.3864H8.71795V13.8182H9.23077V13.3864Z" fill="white"/>
<path d="M9.74359 13.3864H9.23077V13.8182H9.74359V13.3864Z" fill="white"/>
<path d="M10.2564 13.3864H9.74359V13.8182H10.2564V13.3864Z" fill="white"/>
<path d="M10.7692 13.3864H10.2564V13.8182H10.7692V13.3864Z" fill="#BAB7B7"/>
<path d="M11.2821 13.3864H10.7692V13.8182H11.2821V13.3864Z" fill="#6C6C6C"/>
<path d="M11.7949 13.3864H11.2821V13.8182H11.7949V13.3864Z" fill="#6C6C6C"/>
<path d="M12.3077 13.3864H11.7949V13.8182H12.3077V13.3864Z" fill="#6C6C6C"/>
<path d="M12.8205 13.3864H12.3077V13.8182H12.8205V13.3864Z" fill="white"/>
<path d="M13.3333 13.3864H12.8205V13.8182H13.3333V13.3864Z" fill="white"/>
<path d="M13.8462 13.3864H13.3333V13.8182H13.8462V13.3864Z" fill="white"/>
<path d="M14.359 13.3864H13.8462V13.8182H14.359V13.3864Z" fill="white"/>
<path d="M14.8718 13.3864H14.359V13.8182H14.8718V13.3864Z" fill="white"/>
<path d="M15.3846 13.3864H14.8718V13.8182H15.3846V13.3864Z" fill="white"/>
<path d="M15.8974 13.3864H15.3846V13.8182H15.8974V13.3864Z" fill="white"/>
<path d="M16.4103 13.3864H15.8974V13.8182H16.4103V13.3864Z" fill="white"/>
<path d="M16.9231 13.3864H16.4103V13.8182H16.9231V13.3864Z" fill="#F6F6F6"/>
<path d="M17.4359 13.3864H16.9231V13.8182H17.4359V13.3864Z" fill="#F6F6F6"/>
<path d="M17.9487 13.3864H17.4359V13.8182H17.9487V13.3864Z" fill="white"/>
<path d="M18.4615 13.3864H17.9487V13.8182H18.4615V13.3864Z" fill="white"/>
<path d="M18.9744 13.3864H18.4615V13.8182H18.9744V13.3864Z" fill="white"/>
<path d="M19.4872 13.3864H18.9744V13.8182H19.4872V13.3864Z" fill="white"/>
<path d="M20 13.3864H19.4872V13.8182H20V13.3864Z" fill="white"/>
<path d="M1.02564 13.8182H0.512817V14.25H1.02564V13.8182Z" fill="#6C6C6C"/>
<path d="M1.53846 13.8182H1.02564V14.25H1.53846V13.8182Z" fill="white"/>
<path d="M2.05128 13.8182H1.53846V14.25H2.05128V13.8182Z" fill="white"/>
<path d="M2.56411 13.8182H2.05128V14.25H2.56411V13.8182Z" fill="white"/>
<path d="M3.07692 13.8182H2.5641V14.25H3.07692V13.8182Z" fill="white"/>
<path d="M3.58974 13.8182H3.07692V14.25H3.58974V13.8182Z" fill="#6C6C6C"/>
<path d="M7.69231 13.8182H7.17949V14.25H7.69231V13.8182Z" fill="#BAB7B7"/>
<path d="M8.20513 13.8182H7.69231V14.25H8.20513V13.8182Z" fill="#F6F6F6"/>
<path d="M8.71795 13.8182H8.20513V14.25H8.71795V13.8182Z" fill="#F6F6F6"/>
<path d="M9.23077 13.8182H8.71795V14.25H9.23077V13.8182Z" fill="white"/>
<path d="M9.74359 13.8182H9.23077V14.25H9.74359V13.8182Z" fill="white"/>
<path d="M10.2564 13.8182H9.74359V14.25H10.2564V13.8182Z" fill="#BAB7B7"/>
<path d="M10.7692 13.8182H10.2564V14.25H10.7692V13.8182Z" fill="#6C6C6C"/>
<path d="M11.2821 13.8182H10.7692V14.25H11.2821V13.8182Z" fill="white"/>
<path d="M11.7949 13.8182H11.2821V14.25H11.7949V13.8182Z" fill="white"/>
<path d="M12.3077 13.8182H11.7949V14.25H12.3077V13.8182Z" fill="white"/>
<path d="M12.8205 13.8182H12.3077V14.25H12.8205V13.8182Z" fill="white"/>
<path d="M13.3333 13.8182H12.8205V14.25H13.3333V13.8182Z" fill="white"/>
<path d="M13.8462 13.8182H13.3333V14.25H13.8462V13.8182Z" fill="#BAB7B7"/>
<path d="M14.359 13.8182H13.8462V14.25H14.359V13.8182Z" fill="#BAB7B7"/>
<path d="M14.8718 13.8182H14.359V14.25H14.8718V13.8182Z" fill="#BAB7B7"/>
<path d="M15.3846 13.8182H14.8718V14.25H15.3846V13.8182Z" fill="#BAB7B7"/>
<path d="M15.8974 13.8182H15.3846V14.25H15.8974V13.8182Z" fill="white"/>
<path d="M16.4103 13.8182H15.8974V14.25H16.4103V13.8182Z" fill="white"/>
<path d="M16.9231 13.8182H16.4103V14.25H16.9231V13.8182Z" fill="#F6F6F6"/>
<path d="M17.4359 13.8182H16.9231V14.25H17.4359V13.8182Z" fill="white"/>
<path d="M17.9487 13.8182H17.4359V14.25H17.9487V13.8182Z" fill="white"/>
<path d="M18.4615 13.8182H17.9487V14.25H18.4615V13.8182Z" fill="white"/>
<path d="M18.9744 13.8182H18.4615V14.25H18.9744V13.8182Z" fill="white"/>
<path d="M19.4872 13.8182H18.9744V14.25H19.4872V13.8182Z" fill="white"/>
<path d="M20 13.8182H19.4872V14.25H20V13.8182Z" fill="white"/>
<path d="M0.512821 14.25H0V14.6818H0.512821V14.25Z" fill="#6C6C6C"/>
<path d="M1.02564 14.25H0.512817V14.6818H1.02564V14.25Z" fill="white"/>
<path d="M1.53846 14.25H1.02564V14.6818H1.53846V14.25Z" fill="#BAB7B7"/>
<path d="M2.05128 14.25H1.53846V14.6818H2.05128V14.25Z" fill="#BAB7B7"/>
<path d="M2.56411 14.25H2.05128V14.6818H2.56411V14.25Z" fill="white"/>
<path d="M3.07692 14.25H2.5641V14.6818H3.07692V14.25Z" fill="white"/>
<path d="M3.58974 14.25H3.07692V14.6818H3.58974V14.25Z" fill="white"/>
<path d="M4.10257 14.25H3.58974V14.6818H4.10257V14.25Z" fill="#6C6C6C"/>
<path d="M8.20513 14.25H7.69231V14.6818H8.20513V14.25Z" fill="#BAB7B7"/>
<path d="M8.71795 14.25H8.20513V14.6818H8.71795V14.25Z" fill="#F6F6F6"/>
<path d="M9.23077 14.25H8.71795V14.6818H9.23077V14.25Z" fill="#F6F6F6"/>
<path d="M9.74359 14.25H9.23077V14.6818H9.74359V14.25Z" fill="#BAB7B7"/>
<path d="M10.2564 14.25H9.74359V14.6818H10.2564V14.25Z" fill="#6C6C6C"/>
<path d="M10.7692 14.25H10.2564V14.6818H10.7692V14.25Z" fill="white"/>
<path d="M11.2821 14.25H10.7692V14.6818H11.2821V14.25Z" fill="white"/>
<path d="M11.7949 14.25H11.2821V14.6818H11.7949V14.25Z" fill="white"/>
<path d="M12.3077 14.25H11.7949V14.6818H12.3077V14.25Z" fill="white"/>
<path d="M12.8205 14.25H12.3077V14.6818H12.8205V14.25Z" fill="white"/>
<path d="M13.3333 14.25H12.8205V14.6818H13.3333V14.25Z" fill="#BAB7B7"/>
<path d="M13.8462 14.25H13.3333V14.6818H13.8462V14.25Z" fill="#6C6C6C"/>
<path d="M14.359 14.25H13.8462V14.6818H14.359V14.25Z" fill="#6C6C6C"/>
<path d="M14.8718 14.25H14.359V14.6818H14.8718V14.25Z" fill="#F6F6F6"/>
<path d="M15.3846 14.25H14.8718V14.6818H15.3846V14.25Z" fill="#F6F6F6"/>
<path d="M15.8974 14.25H15.3846V14.6818H15.8974V14.25Z" fill="#F6F6F6"/>
<path d="M16.4103 14.25H15.8974V14.6818H16.4103V14.25Z" fill="white"/>
<path d="M16.9231 14.25H16.4103V14.6818H16.9231V14.25Z" fill="white"/>
<path d="M17.4359 14.25H16.9231V14.6818H17.4359V14.25Z" fill="white"/>
<path d="M17.9487 14.25H17.4359V14.6818H17.9487V14.25Z" fill="white"/>
<path d="M18.4615 14.25H17.9487V14.6818H18.4615V14.25Z" fill="white"/>
<path d="M18.9744 14.25H18.4615V14.6818H18.9744V14.25Z" fill="white"/>
<path d="M19.4872 14.25H18.9744V14.6818H19.4872V14.25Z" fill="white"/>
<path d="M20 14.25H19.4872V14.6818H20V14.25Z" fill="white"/>
<path d="M0.512821 14.6818H0V15.1136H0.512821V14.6818Z" fill="white"/>
<path d="M1.02564 14.6818H0.512817V15.1136H1.02564V14.6818Z" fill="#BAB7B7"/>
<path d="M2.56411 14.6818H2.05128V15.1136H2.56411V14.6818Z" fill="#BAB7B7"/>
<path d="M3.07692 14.6818H2.5641V15.1136H3.07692V14.6818Z" fill="white"/>
<path d="M3.58974 14.6818H3.07692V15.1136H3.58974V14.6818Z" fill="white"/>
<path d="M4.10257 14.6818H3.58974V15.1136H4.10257V14.6818Z" fill="white"/>
<path d="M4.61538 14.6818H4.10256V15.1136H4.61538V14.6818Z" fill="#6C6C6C"/>
<path d="M8.71795 14.6818H8.20513V15.1136H8.71795V14.6818Z" fill="#BAB7B7"/>
<path d="M9.23077 14.6818H8.71795V15.1136H9.23077V14.6818Z" fill="#BAB7B7"/>
<path d="M9.74359 14.6818H9.23077V15.1136H9.74359V14.6818Z" fill="#6C6C6C"/>
<path d="M10.2564 14.6818H9.74359V15.1136H10.2564V14.6818Z" fill="white"/>
<path d="M10.7692 14.6818H10.2564V15.1136H10.7692V14.6818Z" fill="white"/>
<path d="M11.2821 14.6818H10.7692V15.1136H11.2821V14.6818Z" fill="white"/>
<path d="M11.7949 14.6818H11.2821V15.1136H11.7949V14.6818Z" fill="white"/>
<path d="M12.3077 14.6818H11.7949V15.1136H12.3077V14.6818Z" fill="white"/>
<path d="M12.8205 14.6818H12.3077V15.1136H12.8205V14.6818Z" fill="#BAB7B7"/>
<path d="M13.3333 14.6818H12.8205V15.1136H13.3333V14.6818Z" fill="#6C6C6C"/>
<path d="M13.8462 14.6818H13.3333V15.1136H13.8462V14.6818Z" fill="#F6F6F6"/>
<path d="M14.359 14.6818H13.8462V15.1136H14.359V14.6818Z" fill="#F6F6F6"/>
<path d="M14.8718 14.6818H14.359V15.1136H14.8718V14.6818Z" fill="#F6F6F6"/>
<path d="M15.3846 14.6818H14.8718V15.1136H15.3846V14.6818Z" fill="white"/>
<path d="M15.8974 14.6818H15.3846V15.1136H15.8974V14.6818Z" fill="white"/>
<path d="M16.4103 14.6818H15.8974V15.1136H16.4103V14.6818Z" fill="white"/>
<path d="M16.9231 14.6818H16.4103V15.1136H16.9231V14.6818Z" fill="#F6F6F6"/>
<path d="M17.4359 14.6818H16.9231V15.1136H17.4359V14.6818Z" fill="#F6F6F6"/>
<path d="M17.9487 14.6818H17.4359V15.1136H17.9487V14.6818Z" fill="#F6F6F6"/>
<path d="M18.4615 14.6818H17.9487V15.1136H18.4615V14.6818Z" fill="#F6F6F6"/>
<path d="M18.9744 14.6818H18.4615V15.1136H18.9744V14.6818Z" fill="#F6F6F6"/>
<path d="M19.4872 14.6818H18.9744V15.1136H19.4872V14.6818Z" fill="white"/>
<path d="M20 14.6818H19.4872V15.1136H20V14.6818Z" fill="white"/>
<path d="M0.512821 15.1136H0V15.5455H0.512821V15.1136Z" fill="#BAB7B7"/>
<path d="M3.07692 15.1136H2.5641V15.5455H3.07692V15.1136Z" fill="#BAB7B7"/>
<path d="M3.58974 15.1136H3.07692V15.5455H3.58974V15.1136Z" fill="white"/>
<path d="M4.10257 15.1136H3.58974V15.5455H4.10257V15.1136Z" fill="white"/>
<path d="M4.61538 15.1136H4.10256V15.5455H4.61538V15.1136Z" fill="white"/>
<path d="M5.12821 15.1136H4.61539V15.5455H5.12821V15.1136Z" fill="#6C6C6C"/>
<path d="M8.71795 15.1136H8.20513V15.5455H8.71795V15.1136Z" fill="#BAB7B7"/>
<path d="M9.23077 15.1136H8.71795V15.5455H9.23077V15.1136Z" fill="#6C6C6C"/>
<path d="M9.74359 15.1136H9.23077V15.5455H9.74359V15.1136Z" fill="white"/>
<path d="M10.2564 15.1136H9.74359V15.5455H10.2564V15.1136Z" fill="white"/>
<path d="M10.7692 15.1136H10.2564V15.5455H10.7692V15.1136Z" fill="white"/>
<path d="M11.2821 15.1136H10.7692V15.5455H11.2821V15.1136Z" fill="white"/>
<path d="M11.7949 15.1136H11.2821V15.5455H11.7949V15.1136Z" fill="white"/>
<path d="M12.3077 15.1136H11.7949V15.5455H12.3077V15.1136Z" fill="#BAB7B7"/>
<path d="M12.8205 15.1136H12.3077V15.5455H12.8205V15.1136Z" fill="#6C6C6C"/>
<path d="M13.3333 15.1136H12.8205V15.5455H13.3333V15.1136Z" fill="#F6F6F6"/>
<path d="M13.8462 15.1136H13.3333V15.5455H13.8462V15.1136Z" fill="white"/>
<path d="M14.359 15.1136H13.8462V15.5455H14.359V15.1136Z" fill="white"/>
<path d="M14.8718 15.1136H14.359V15.5455H14.8718V15.1136Z" fill="white"/>
<path d="M15.3846 15.1136H14.8718V15.5455H15.3846V15.1136Z" fill="white"/>
<path d="M15.8974 15.1136H15.3846V15.5455H15.8974V15.1136Z" fill="white"/>
<path d="M16.4103 15.1136H15.8974V15.5455H16.4103V15.1136Z" fill="#F6F6F6"/>
<path d="M16.9231 15.1136H16.4103V15.5455H16.9231V15.1136Z" fill="#6C6C6C"/>
<path d="M17.4359 15.1136H16.9231V15.5455H17.4359V15.1136Z" fill="#6C6C6C"/>
<path d="M17.9487 15.1136H17.4359V15.5455H17.9487V15.1136Z" fill="#6C6C6C"/>
<path d="M18.4615 15.1136H17.9487V15.5455H18.4615V15.1136Z" fill="#6C6C6C"/>
<path d="M18.9744 15.1136H18.4615V15.5455H18.9744V15.1136Z" fill="#6C6C6C"/>
<path d="M19.4872 15.1136H18.9744V15.5455H19.4872V15.1136Z" fill="#F6F6F6"/>
<path d="M20 15.1136H19.4872V15.5455H20V15.1136Z" fill="white"/>
<path d="M3.58974 15.5454H3.07692V15.9773H3.58974V15.5454Z" fill="#BAB7B7"/>
<path d="M4.10257 15.5454H3.58974V15.9773H4.10257V15.5454Z" fill="white"/>
<path d="M4.61538 15.5454H4.10256V15.9773H4.61538V15.5454Z" fill="white"/>
<path d="M5.12821 15.5454H4.61539V15.9773H5.12821V15.5454Z" fill="white"/>
<path d="M5.64103 15.5454H5.1282V15.9773H5.64103V15.5454Z" fill="#6C6C6C"/>
<path d="M8.71795 15.5454H8.20513V15.9773H8.71795V15.5454Z" fill="#6C6C6C"/>
<path d="M9.23077 15.5454H8.71795V15.9773H9.23077V15.5454Z" fill="white"/>
<path d="M9.74359 15.5454H9.23077V15.9773H9.74359V15.5454Z" fill="white"/>
<path d="M10.2564 15.5454H9.74359V15.9773H10.2564V15.5454Z" fill="white"/>
<path d="M10.7692 15.5454H10.2564V15.9773H10.7692V15.5454Z" fill="white"/>
<path d="M11.2821 15.5454H10.7692V15.9773H11.2821V15.5454Z" fill="white"/>
<path d="M11.7949 15.5454H11.2821V15.9773H11.7949V15.5454Z" fill="white"/>
<path d="M12.3077 15.5454H11.7949V15.9773H12.3077V15.5454Z" fill="#BAB7B7"/>
<path d="M12.8205 15.5454H12.3077V15.9773H12.8205V15.5454Z" fill="#6C6C6C"/>
<path d="M13.3333 15.5454H12.8205V15.9773H13.3333V15.5454Z" fill="#F6F6F6"/>
<path d="M13.8462 15.5454H13.3333V15.9773H13.8462V15.5454Z" fill="white"/>
<path d="M14.359 15.5454H13.8462V15.9773H14.359V15.5454Z" fill="white"/>
<path d="M14.8718 15.5454H14.359V15.9773H14.8718V15.5454Z" fill="white"/>
<path d="M15.3846 15.5454H14.8718V15.9773H15.3846V15.5454Z" fill="white"/>
<path d="M15.8974 15.5454H15.3846V15.9773H15.8974V15.5454Z" fill="#BAB7B7"/>
<path d="M16.4103 15.5454H15.8974V15.9773H16.4103V15.5454Z" fill="#6C6C6C"/>
<path d="M16.9231 15.5454H16.4103V15.9773H16.9231V15.5454Z" fill="#F6F6F6"/>
<path d="M17.4359 15.5454H16.9231V15.9773H17.4359V15.5454Z" fill="white"/>
<path d="M17.9487 15.5454H17.4359V15.9773H17.9487V15.5454Z" fill="white"/>
<path d="M18.4615 15.5454H17.9487V15.9773H18.4615V15.5454Z" fill="white"/>
<path d="M18.9744 15.5454H18.4615V15.9773H18.9744V15.5454Z" fill="white"/>
<path d="M19.4872 15.5454H18.9744V15.9773H19.4872V15.5454Z" fill="#6C6C6C"/>
<path d="M20 15.5454H19.4872V15.9773H20V15.5454Z" fill="#F6F6F6"/>
<path d="M3.58974 15.9773H3.07692V16.4091H3.58974V15.9773Z" fill="#BAB7B7"/>
<path d="M4.10257 15.9773H3.58974V16.4091H4.10257V15.9773Z" fill="white"/>
<path d="M4.61538 15.9773H4.10256V16.4091H4.61538V15.9773Z" fill="white"/>
<path d="M5.12821 15.9773H4.61539V16.4091H5.12821V15.9773Z" fill="white"/>
<path d="M5.64103 15.9773H5.1282V16.4091H5.64103V15.9773Z" fill="white"/>
<path d="M6.15384 15.9773H5.64102V16.4091H6.15384V15.9773Z" fill="#6C6C6C"/>
<path d="M6.66667 15.9773H6.15385V16.4091H6.66667V15.9773Z" fill="#6C6C6C"/>
<path d="M8.20513 15.9773H7.69231V16.4091H8.20513V15.9773Z" fill="#6C6C6C"/>
<path d="M8.71795 15.9773H8.20513V16.4091H8.71795V15.9773Z" fill="white"/>
<path d="M9.23077 15.9773H8.71795V16.4091H9.23077V15.9773Z" fill="white"/>
<path d="M9.74359 15.9773H9.23077V16.4091H9.74359V15.9773Z" fill="white"/>
<path d="M10.2564 15.9773H9.74359V16.4091H10.2564V15.9773Z" fill="white"/>
<path d="M10.7692 15.9773H10.2564V16.4091H10.7692V15.9773Z" fill="white"/>
<path d="M11.2821 15.9773H10.7692V16.4091H11.2821V15.9773Z" fill="white"/>
<path d="M11.7949 15.9773H11.2821V16.4091H11.7949V15.9773Z" fill="#BAB7B7"/>
<path d="M12.3077 15.9773H11.7949V16.4091H12.3077V15.9773Z" fill="#6C6C6C"/>
<path d="M12.8205 15.9773H12.3077V16.4091H12.8205V15.9773Z" fill="#F6F6F6"/>
<path d="M13.3333 15.9773H12.8205V16.4091H13.3333V15.9773Z" fill="white"/>
<path d="M13.8462 15.9773H13.3333V16.4091H13.8462V15.9773Z" fill="white"/>
<path d="M14.359 15.9773H13.8462V16.4091H14.359V15.9773Z" fill="white"/>
<path d="M14.8718 15.9773H14.359V16.4091H14.8718V15.9773Z" fill="white"/>
<path d="M15.3846 15.9773H14.8718V16.4091H15.3846V15.9773Z" fill="#BAB7B7"/>
<path d="M15.8974 15.9773H15.3846V16.4091H15.8974V15.9773Z" fill="#6C6C6C"/>
<path d="M16.4103 15.9773H15.8974V16.4091H16.4103V15.9773Z" fill="white"/>
<path d="M16.9231 15.9773H16.4103V16.4091H16.9231V15.9773Z" fill="white"/>
<path d="M17.4359 15.9773H16.9231V16.4091H17.4359V15.9773Z" fill="#BAB7B7"/>
<path d="M17.9487 15.9773H17.4359V16.4091H17.9487V15.9773Z" fill="white"/>
<path d="M18.4615 15.9773H17.9487V16.4091H18.4615V15.9773Z" fill="white"/>
<path d="M18.9744 15.9773H18.4615V16.4091H18.9744V15.9773Z" fill="white"/>
<path d="M19.4872 15.9773H18.9744V16.4091H19.4872V15.9773Z" fill="#F6F6F6"/>
<path d="M20 15.9773H19.4872V16.4091H20V15.9773Z" fill="#6C6C6C"/>
<path d="M4.10257 16.4091H3.58974V16.8409H4.10257V16.4091Z" fill="#BAB7B7"/>
<path d="M4.61538 16.4091H4.10256V16.8409H4.61538V16.4091Z" fill="white"/>
<path d="M5.12821 16.4091H4.61539V16.8409H5.12821V16.4091Z" fill="white"/>
<path d="M5.64103 16.4091H5.1282V16.8409H5.64103V16.4091Z" fill="white"/>
<path d="M6.15384 16.4091H5.64102V16.8409H6.15384V16.4091Z" fill="white"/>
<path d="M6.66667 16.4091H6.15385V16.8409H6.66667V16.4091Z" fill="white"/>
<path d="M7.17948 16.4091H6.66666V16.8409H7.17948V16.4091Z" fill="#6C6C6C"/>
<path d="M7.69231 16.4091H7.17949V16.8409H7.69231V16.4091Z" fill="#6C6C6C"/>
<path d="M8.20513 16.4091H7.69231V16.8409H8.20513V16.4091Z" fill="white"/>
<path d="M8.71795 16.4091H8.20513V16.8409H8.71795V16.4091Z" fill="white"/>
<path d="M9.23077 16.4091H8.71795V16.8409H9.23077V16.4091Z" fill="white"/>
<path d="M9.74359 16.4091H9.23077V16.8409H9.74359V16.4091Z" fill="white"/>
<path d="M10.2564 16.4091H9.74359V16.8409H10.2564V16.4091Z" fill="white"/>
<path d="M10.7692 16.4091H10.2564V16.8409H10.7692V16.4091Z" fill="white"/>
<path d="M11.2821 16.4091H10.7692V16.8409H11.2821V16.4091Z" fill="white"/>
<path d="M11.7949 16.4091H11.2821V16.8409H11.7949V16.4091Z" fill="#BAB7B7"/>
<path d="M12.3077 16.4091H11.7949V16.8409H12.3077V16.4091Z" fill="#6C6C6C"/>
<path d="M12.8205 16.4091H12.3077V16.8409H12.8205V16.4091Z" fill="#F6F6F6"/>
<path d="M13.3333 16.4091H12.8205V16.8409H13.3333V16.4091Z" fill="white"/>
<path d="M13.8462 16.4091H13.3333V16.8409H13.8462V16.4091Z" fill="white"/>
<path d="M14.359 16.4091H13.8462V16.8409H14.359V16.4091Z" fill="white"/>
<path d="M14.8718 16.4091H14.359V16.8409H14.8718V16.4091Z" fill="white"/>
<path d="M15.3846 16.4091H14.8718V16.8409H15.3846V16.4091Z" fill="#BAB7B7"/>
<path d="M15.8974 16.4091H15.3846V16.8409H15.8974V16.4091Z" fill="#6C6C6C"/>
<path d="M16.4103 16.4091H15.8974V16.8409H16.4103V16.4091Z" fill="white"/>
<path d="M16.9231 16.4091H16.4103V16.8409H16.9231V16.4091Z" fill="#BAB7B7"/>
<path d="M17.4359 16.4091H16.9231V16.8409H17.4359V16.4091Z" fill="#6C6C6C"/>
<path d="M17.9487 16.4091H17.4359V16.8409H17.9487V16.4091Z" fill="#BAB7B7"/>
<path d="M18.4615 16.4091H17.9487V16.8409H18.4615V16.4091Z" fill="white"/>
<path d="M18.9744 16.4091H18.4615V16.8409H18.9744V16.4091Z" fill="white"/>
<path d="M19.4872 16.4091H18.9744V16.8409H19.4872V16.4091Z" fill="#F6F6F6"/>
<path d="M20 16.4091H19.4872V16.8409H20V16.4091Z" fill="#6C6C6C"/>
<path d="M4.61538 16.8409H4.10256V17.2727H4.61538V16.8409Z" fill="#BAB7B7"/>
<path d="M5.12821 16.8409H4.61539V17.2727H5.12821V16.8409Z" fill="white"/>
<path d="M5.64103 16.8409H5.1282V17.2727H5.64103V16.8409Z" fill="white"/>
<path d="M6.15384 16.8409H5.64102V17.2727H6.15384V16.8409Z" fill="white"/>
<path d="M6.66667 16.8409H6.15385V17.2727H6.66667V16.8409Z" fill="white"/>
<path d="M7.17948 16.8409H6.66666V17.2727H7.17948V16.8409Z" fill="white"/>
<path d="M7.69231 16.8409H7.17949V17.2727H7.69231V16.8409Z" fill="white"/>
<path d="M8.20513 16.8409H7.69231V17.2727H8.20513V16.8409Z" fill="white"/>
<path d="M8.71795 16.8409H8.20513V17.2727H8.71795V16.8409Z" fill="white"/>
<path d="M9.23077 16.8409H8.71795V17.2727H9.23077V16.8409Z" fill="white"/>
<path d="M9.74359 16.8409H9.23077V17.2727H9.74359V16.8409Z" fill="white"/>
<path d="M10.2564 16.8409H9.74359V17.2727H10.2564V16.8409Z" fill="white"/>
<path d="M10.7692 16.8409H10.2564V17.2727H10.7692V16.8409Z" fill="white"/>
<path d="M11.2821 16.8409H10.7692V17.2727H11.2821V16.8409Z" fill="white"/>
<path d="M11.7949 16.8409H11.2821V17.2727H11.7949V16.8409Z" fill="#BAB7B7"/>
<path d="M12.3077 16.8409H11.7949V17.2727H12.3077V16.8409Z" fill="#6C6C6C"/>
<path d="M12.8205 16.8409H12.3077V17.2727H12.8205V16.8409Z" fill="#F6F6F6"/>
<path d="M13.3333 16.8409H12.8205V17.2727H13.3333V16.8409Z" fill="white"/>
<path d="M13.8462 16.8409H13.3333V17.2727H13.8462V16.8409Z" fill="white"/>
<path d="M14.359 16.8409H13.8462V17.2727H14.359V16.8409Z" fill="white"/>
<path d="M14.8718 16.8409H14.359V17.2727H14.8718V16.8409Z" fill="white"/>
<path d="M15.3846 16.8409H14.8718V17.2727H15.3846V16.8409Z" fill="#BAB7B7"/>
<path d="M15.8974 16.8409H15.3846V17.2727H15.8974V16.8409Z" fill="#6C6C6C"/>
<path d="M16.4103 16.8409H15.8974V17.2727H16.4103V16.8409Z" fill="white"/>
<path d="M16.9231 16.8409H16.4103V17.2727H16.9231V16.8409Z" fill="white"/>
<path d="M17.4359 16.8409H16.9231V17.2727H17.4359V16.8409Z" fill="#BAB7B7"/>
<path d="M17.9487 16.8409H17.4359V17.2727H17.9487V16.8409Z" fill="#6C6C6C"/>
<path d="M18.4615 16.8409H17.9487V17.2727H18.4615V16.8409Z" fill="#BAB7B7"/>
<path d="M18.9744 16.8409H18.4615V17.2727H18.9744V16.8409Z" fill="white"/>
<path d="M19.4872 16.8409H18.9744V17.2727H19.4872V16.8409Z" fill="#F6F6F6"/>
<path d="M20 16.8409H19.4872V17.2727H20V16.8409Z" fill="#6C6C6C"/>
<path d="M4.61538 17.2727H4.10256V17.7046H4.61538V17.2727Z" fill="#BAB7B7"/>
<path d="M5.12821 17.2727H4.61539V17.7046H5.12821V17.2727Z" fill="white"/>
<path d="M5.64103 17.2727H5.1282V17.7046H5.64103V17.2727Z" fill="white"/>
<path d="M6.15384 17.2727H5.64102V17.7046H6.15384V17.2727Z" fill="white"/>
<path d="M6.66667 17.2727H6.15385V17.7046H6.66667V17.2727Z" fill="white"/>
<path d="M7.17948 17.2727H6.66666V17.7046H7.17948V17.2727Z" fill="white"/>
<path d="M7.69231 17.2727H7.17949V17.7046H7.69231V17.2727Z" fill="white"/>
<path d="M8.20513 17.2727H7.69231V17.7046H8.20513V17.2727Z" fill="white"/>
<path d="M8.71795 17.2727H8.20513V17.7046H8.71795V17.2727Z" fill="white"/>
<path d="M9.23077 17.2727H8.71795V17.7046H9.23077V17.2727Z" fill="white"/>
<path d="M9.74359 17.2727H9.23077V17.7046H9.74359V17.2727Z" fill="white"/>
<path d="M10.2564 17.2727H9.74359V17.7046H10.2564V17.2727Z" fill="white"/>
<path d="M10.7692 17.2727H10.2564V17.7046H10.7692V17.2727Z" fill="white"/>
<path d="M11.2821 17.2727H10.7692V17.7046H11.2821V17.2727Z" fill="white"/>
<path d="M11.7949 17.2727H11.2821V17.7046H11.7949V17.2727Z" fill="#BAB7B7"/>
<path d="M12.3077 17.2727H11.7949V17.7046H12.3077V17.2727Z" fill="#6C6C6C"/>
<path d="M12.8205 17.2727H12.3077V17.7046H12.8205V17.2727Z" fill="#F6F6F6"/>
<path d="M13.3333 17.2727H12.8205V17.7046H13.3333V17.2727Z" fill="white"/>
<path d="M13.8462 17.2727H13.3333V17.7046H13.8462V17.2727Z" fill="white"/>
<path d="M14.359 17.2727H13.8462V17.7046H14.359V17.2727Z" fill="white"/>
<path d="M14.8718 17.2727H14.359V17.7046H14.8718V17.2727Z" fill="white"/>
<path d="M15.3846 17.2727H14.8718V17.7046H15.3846V17.2727Z" fill="white"/>
<path d="M15.8974 17.2727H15.3846V17.7046H15.8974V17.2727Z" fill="#BAB7B7"/>
<path d="M16.4103 17.2727H15.8974V17.7046H16.4103V17.2727Z" fill="#6C6C6C"/>
<path d="M16.9231 17.2727H16.4103V17.7046H16.9231V17.2727Z" fill="white"/>
<path d="M17.4359 17.2727H16.9231V17.7046H17.4359V17.2727Z" fill="white"/>
<path d="M17.9487 17.2727H17.4359V17.7046H17.9487V17.2727Z" fill="#6C6C6C"/>
<path d="M18.4615 17.2727H17.9487V17.7046H18.4615V17.2727Z" fill="#BAB7B7"/>
<path d="M18.9744 17.2727H18.4615V17.7046H18.9744V17.2727Z" fill="white"/>
<path d="M19.4872 17.2727H18.9744V17.7046H19.4872V17.2727Z" fill="#F6F6F6"/>
<path d="M20 17.2727H19.4872V17.7046H20V17.2727Z" fill="#6C6C6C"/>
<path d="M5.12821 17.7046H4.61539V18.1364H5.12821V17.7046Z" fill="#BAB7B7"/>
<path d="M5.64103 17.7046H5.1282V18.1364H5.64103V17.7046Z" fill="white"/>
<path d="M6.15384 17.7046H5.64102V18.1364H6.15384V17.7046Z" fill="white"/>
<path d="M6.66667 17.7046H6.15385V18.1364H6.66667V17.7046Z" fill="white"/>
<path d="M7.17948 17.7046H6.66666V18.1364H7.17948V17.7046Z" fill="white"/>
<path d="M7.69231 17.7046H7.17949V18.1364H7.69231V17.7046Z" fill="white"/>
<path d="M8.20513 17.7046H7.69231V18.1364H8.20513V17.7046Z" fill="white"/>
<path d="M8.71795 17.7046H8.20513V18.1364H8.71795V17.7046Z" fill="white"/>
<path d="M9.23077 17.7046H8.71795V18.1364H9.23077V17.7046Z" fill="white"/>
<path d="M9.74359 17.7046H9.23077V18.1364H9.74359V17.7046Z" fill="white"/>
<path d="M10.2564 17.7046H9.74359V18.1364H10.2564V17.7046Z" fill="#F6F6F6"/>
<path d="M10.7692 17.7046H10.2564V18.1364H10.7692V17.7046Z" fill="#F6F6F6"/>
<path d="M11.2821 17.7046H10.7692V18.1364H11.2821V17.7046Z" fill="#F6F6F6"/>
<path d="M11.7949 17.7046H11.2821V18.1364H11.7949V17.7046Z" fill="#BAB7B7"/>
<path d="M12.3077 17.7046H11.7949V18.1364H12.3077V17.7046Z" fill="#BAB7B7"/>
<path d="M12.8205 17.7046H12.3077V18.1364H12.8205V17.7046Z" fill="#6C6C6C"/>
<path d="M13.3333 17.7046H12.8205V18.1364H13.3333V17.7046Z" fill="#F6F6F6"/>
<path d="M13.8462 17.7046H13.3333V18.1364H13.8462V17.7046Z" fill="white"/>
<path d="M14.359 17.7046H13.8462V18.1364H14.359V17.7046Z" fill="white"/>
<path d="M14.8718 17.7046H14.359V18.1364H14.8718V17.7046Z" fill="white"/>
<path d="M15.3846 17.7046H14.8718V18.1364H15.3846V17.7046Z" fill="white"/>
<path d="M15.8974 17.7046H15.3846V18.1364H15.8974V17.7046Z" fill="white"/>
<path d="M16.4103 17.7046H15.8974V18.1364H16.4103V17.7046Z" fill="#BAB7B7"/>
<path d="M16.9231 17.7046H16.4103V18.1364H16.9231V17.7046Z" fill="#6C6C6C"/>
<path d="M17.4359 17.7046H16.9231V18.1364H17.4359V17.7046Z" fill="#6C6C6C"/>
<path d="M17.9487 17.7046H17.4359V18.1364H17.9487V17.7046Z" fill="#6C6C6C"/>
<path d="M18.4615 17.7046H17.9487V18.1364H18.4615V17.7046Z" fill="#BAB7B7"/>
<path d="M18.9744 17.7046H18.4615V18.1364H18.9744V17.7046Z" fill="white"/>
<path d="M19.4872 17.7046H18.9744V18.1364H19.4872V17.7046Z" fill="#F6F6F6"/>
<path d="M20 17.7046H19.4872V18.1364H20V17.7046Z" fill="#6C6C6C"/>
<path d="M5.64103 18.1364H5.1282V18.5682H5.64103V18.1364Z" fill="#BAB7B7"/>
<path d="M6.15384 18.1364H5.64102V18.5682H6.15384V18.1364Z" fill="#BAB7B7"/>
<path d="M6.66667 18.1364H6.15385V18.5682H6.66667V18.1364Z" fill="#F6F6F6"/>
<path d="M7.17948 18.1364H6.66666V18.5682H7.17948V18.1364Z" fill="#F6F6F6"/>
<path d="M7.69231 18.1364H7.17949V18.5682H7.69231V18.1364Z" fill="#F6F6F6"/>
<path d="M8.20513 18.1364H7.69231V18.5682H8.20513V18.1364Z" fill="#F6F6F6"/>
<path d="M8.71795 18.1364H8.20513V18.5682H8.71795V18.1364Z" fill="#F6F6F6"/>
<path d="M9.23077 18.1364H8.71795V18.5682H9.23077V18.1364Z" fill="#F6F6F6"/>
<path d="M9.74359 18.1364H9.23077V18.5682H9.74359V18.1364Z" fill="#F6F6F6"/>
<path d="M10.2564 18.1364H9.74359V18.5682H10.2564V18.1364Z" fill="#BAB7B7"/>
<path d="M10.7692 18.1364H10.2564V18.5682H10.7692V18.1364Z" fill="#BAB7B7"/>
<path d="M11.2821 18.1364H10.7692V18.5682H11.2821V18.1364Z" fill="#BAB7B7"/>
<path d="M11.7949 18.1364H11.2821V18.5682H11.7949V18.1364Z" fill="#BAB7B7"/>
<path d="M13.3333 18.1364H12.8205V18.5682H13.3333V18.1364Z" fill="#6C6C6C"/>
<path d="M13.8462 18.1364H13.3333V18.5682H13.8462V18.1364Z" fill="#F6F6F6"/>
<path d="M14.359 18.1364H13.8462V18.5682H14.359V18.1364Z" fill="white"/>
<path d="M14.8718 18.1364H14.359V18.5682H14.8718V18.1364Z" fill="white"/>
<path d="M15.3846 18.1364H14.8718V18.5682H15.3846V18.1364Z" fill="white"/>
<path d="M15.8974 18.1364H15.3846V18.5682H15.8974V18.1364Z" fill="white"/>
<path d="M16.4103 18.1364H15.8974V18.5682H16.4103V18.1364Z" fill="white"/>
<path d="M16.9231 18.1364H16.4103V18.5682H16.9231V18.1364Z" fill="#BAB7B7"/>
<path d="M17.4359 18.1364H16.9231V18.5682H17.4359V18.1364Z" fill="#BAB7B7"/>
<path d="M17.9487 18.1364H17.4359V18.5682H17.9487V18.1364Z" fill="#BAB7B7"/>
<path d="M18.4615 18.1364H17.9487V18.5682H18.4615V18.1364Z" fill="white"/>
<path d="M18.9744 18.1364H18.4615V18.5682H18.9744V18.1364Z" fill="white"/>
<path d="M19.4872 18.1364H18.9744V18.5682H19.4872V18.1364Z" fill="#6C6C6C"/>
<path d="M20 18.1364H19.4872V18.5682H20V18.1364Z" fill="#BAB7B7"/>
<path d="M6.66667 18.5682H6.15385V19H6.66667V18.5682Z" fill="#BAB7B7"/>
<path d="M7.17948 18.5682H6.66666V19H7.17948V18.5682Z" fill="#BAB7B7"/>
<path d="M7.69231 18.5682H7.17949V19H7.69231V18.5682Z" fill="#BAB7B7"/>
<path d="M8.20513 18.5682H7.69231V19H8.20513V18.5682Z" fill="#BAB7B7"/>
<path d="M8.71795 18.5682H8.20513V19H8.71795V18.5682Z" fill="#BAB7B7"/>
<path d="M9.23077 18.5682H8.71795V19H9.23077V18.5682Z" fill="#BAB7B7"/>
<path d="M9.74359 18.5682H9.23077V19H9.74359V18.5682Z" fill="#BAB7B7"/>
<path d="M13.8462 18.5682H13.3333V19H13.8462V18.5682Z" fill="#6C6C6C"/>
<path d="M14.359 18.5682H13.8462V19H14.359V18.5682Z" fill="#F6F6F6"/>
<path d="M14.8718 18.5682H14.359V19H14.8718V18.5682Z" fill="#F6F6F6"/>
<path d="M15.3846 18.5682H14.8718V19H15.3846V18.5682Z" fill="#F6F6F6"/>
<path d="M15.8974 18.5682H15.3846V19H15.8974V18.5682Z" fill="#F6F6F6"/>
<path d="M16.4103 18.5682H15.8974V19H16.4103V18.5682Z" fill="#F6F6F6"/>
<path d="M16.9231 18.5682H16.4103V19H16.9231V18.5682Z" fill="#F6F6F6"/>
<path d="M17.4359 18.5682H16.9231V19H17.4359V18.5682Z" fill="#F6F6F6"/>
<path d="M17.9487 18.5682H17.4359V19H17.9487V18.5682Z" fill="#F6F6F6"/>
<path d="M18.4615 18.5682H17.9487V19H18.4615V18.5682Z" fill="#F6F6F6"/>
<path d="M18.9744 18.5682H18.4615V19H18.9744V18.5682Z" fill="#6C6C6C"/>
<path d="M19.4872 18.5682H18.9744V19H19.4872V18.5682Z" fill="#BAB7B7"/>
</svg>
