<svg width="18" height="18" viewBox="0 0 18 18" fill="none" xmlns="http://www.w3.org/2000/svg">
<path fill-rule="evenodd" clip-rule="evenodd" d="M0 9C0 13.9705 4.02945 18 9 18C13.9705 18 18 13.9705 18 9C18 4.02945 13.9705 0 9 0C4.02945 0 0 4.02945 0 9ZM7.35 13.125L7.50311 10.8309L7.503 10.8307L11.6763 7.06463C11.8595 6.90206 11.6364 6.82279 11.3932 6.97024L6.24274 10.2196L4.01801 9.52526C3.53756 9.37815 3.53411 9.048 4.12586 8.81066L12.7951 5.46784C13.1911 5.28806 13.5732 5.56294 13.4221 6.16894L11.9457 13.1262C11.8426 13.6206 11.5439 13.7388 11.13 13.5104L8.88101 11.8488L7.8 12.9C7.79659 12.9033 7.79321 12.9066 7.78984 12.9099C7.66894 13.0276 7.56889 13.125 7.35 13.125Z" fill="#88CCCA"/>
</svg>
