<svg width="999" height="696" viewBox="0 0 999 696" fill="none" xmlns="http://www.w3.org/2000/svg">
<rect width="999" height="696" rx="60" fill="#3A3C70"/>
<path d="M667.669 0H939C972.137 0 999 26.8629 999 60V636C999 669.137 972.137 696 939 696H444.101L667.669 0Z" fill="#67D7EB"/>
<ellipse rx="33.7656" ry="33.7656" transform="matrix(0.849467 -0.577808 0.804102 0.548843 716.138 361.111)" fill="#ECFAFA"/>
<ellipse rx="38.5313" ry="37.6551" transform="matrix(0.758609 -0.701062 0.970908 0.230516 588.676 192.071)" fill="#ECFAFA"/>
<g filter="url(#filter0_d_33_98)">
<rect width="362.859" height="197.649" rx="34" transform="matrix(0.817862 0.555361 -0.811429 0.57141 450.244 191.794)" fill="white" shape-rendering="crispEdges"/>
<rect x="-0.00160821" y="-0.281693" width="363.359" height="198.149" rx="34.25" transform="matrix(0.817862 0.555361 -0.811429 0.57141 450.015 191.674)" stroke="#E8E4E4" stroke-opacity="0.2" stroke-width="0.5" shape-rendering="crispEdges"/>
</g>
<rect width="337.858" height="178.257" rx="34" transform="matrix(0.819518 0.554298 -0.810125 0.572212 453.357 204.762)" fill="#ECFAFA"/>
<rect width="116.352" height="27.334" rx="13.667" transform="matrix(0.810125 -0.572212 0.819518 0.554298 565.254 466.755)" fill="white"/>
<line y1="-1" x2="134.248" y2="-1" transform="matrix(0.810125 -0.572212 0.819518 0.554298 430.909 364.193)" stroke="#C4C4C4" stroke-opacity="0.7" stroke-width="2"/>
<path d="M469.042 260.209C471.411 261.811 471.308 264.623 468.661 266.493C466.014 268.362 461.95 268.494 459.58 266.892C457.21 265.289 457.314 262.477 459.961 260.608C462.607 258.738 466.672 258.606 469.042 260.209Z" fill="white" stroke="#BDBBBB"/>
<g clip-path="url(#clip0_33_98)">
<path d="M473.447 250.514C470.615 252.514 470.447 255.585 473.072 257.361C475.696 259.136 480.136 258.953 482.968 256.953C485.8 254.952 485.968 251.881 483.343 250.106C480.719 248.33 476.279 248.513 473.447 250.514Z" fill="#FF5A4E"/>
<path d="M481.291 253.204C481.613 253.19 481.864 253.36 481.852 253.583C481.846 253.694 481.775 253.798 481.665 253.875C481.556 253.953 481.407 254.004 481.247 254.01L478.768 254.113L478.674 255.827C478.668 255.939 478.598 256.042 478.488 256.12C478.378 256.197 478.23 256.248 478.069 256.255C477.747 256.268 477.496 256.098 477.508 255.875L477.602 254.161L475.124 254.263C474.802 254.276 474.551 254.107 474.563 253.883C474.576 253.66 474.846 253.469 475.168 253.456L477.647 253.354L477.741 251.639C477.753 251.416 478.023 251.225 478.346 251.212C478.668 251.198 478.919 251.368 478.907 251.591L478.813 253.306L481.291 253.204Z" fill="#FAFAFA"/>
</g>
<g filter="url(#filter1_d_33_98)">
<rect width="154.391" height="27.334" rx="13.667" transform="matrix(0.810125 -0.572212 0.819518 0.554298 355.248 324.713)" fill="white"/>
</g>
<g filter="url(#filter2_d_33_98)">
<rect width="154.39" height="27.334" rx="13.667" transform="matrix(0.810124 -0.572212 0.819518 0.554298 388.846 347.438)" fill="white"/>
</g>
<path d="M384.472 328.165C383.925 328.552 383.313 328.817 382.636 328.961C381.966 329.1 381.292 329.11 380.613 328.991C379.927 328.866 379.31 328.619 378.763 328.249C378.216 327.88 377.849 327.461 377.662 326.995C377.474 326.528 377.474 326.062 377.661 325.596C377.854 325.125 378.225 324.696 378.773 324.31C379.25 323.972 379.771 323.737 380.335 323.604C380.899 323.461 381.47 323.435 382.05 323.527L381.876 324.18C381.416 324.122 380.978 324.146 380.563 324.253C380.14 324.356 379.763 324.523 379.433 324.756C379.033 325.039 378.764 325.357 378.625 325.71C378.487 326.053 378.494 326.402 378.645 326.757C378.803 327.107 379.095 327.426 379.521 327.714C379.955 328.007 380.426 328.204 380.935 328.306C381.445 328.398 381.95 328.395 382.45 328.297C382.951 328.189 383.401 327.993 383.801 327.711C384.131 327.478 384.369 327.216 384.515 326.927C384.661 326.637 384.687 326.334 384.592 326.018L385.534 325.883C385.679 326.282 385.657 326.68 385.47 327.077C385.275 327.47 384.943 327.832 384.472 328.165ZM389.587 324.552C389.089 324.904 388.561 325.081 388.003 325.082C387.452 325.078 386.924 324.906 386.42 324.565L380.07 320.27L380.818 319.742L387.104 323.993C387.438 324.219 387.77 324.338 388.102 324.349C388.427 324.355 388.744 324.249 389.053 324.031C389.25 323.892 389.386 323.751 389.463 323.609L390.144 323.997C390.005 324.203 389.819 324.388 389.587 324.552ZM390.574 316.033L396.178 319.823L395.462 320.329L394.354 319.58C394.505 319.993 394.495 320.398 394.321 320.796C394.155 321.188 393.84 321.548 393.377 321.875C392.857 322.242 392.266 322.493 391.603 322.627C390.941 322.761 390.273 322.766 389.601 322.642C388.929 322.517 388.316 322.268 387.762 321.893C387.208 321.518 386.834 321.1 386.64 320.639C386.445 320.177 386.441 319.718 386.628 319.262C386.808 318.801 387.158 318.387 387.677 318.02C388.126 317.703 388.626 317.482 389.176 317.359C389.726 317.226 390.298 317.2 390.891 317.282L389.826 316.561L390.574 316.033ZM392.769 321.377C393.155 321.104 393.414 320.798 393.545 320.46C393.676 320.112 393.663 319.763 393.505 319.413C393.353 319.059 393.065 318.737 392.639 318.449C392.212 318.161 391.741 317.968 391.225 317.871C390.715 317.769 390.214 317.77 389.72 317.873C389.227 317.966 388.787 318.15 388.401 318.422C388.008 318.7 387.745 319.013 387.614 319.361C387.483 319.699 387.493 320.046 387.644 320.4C387.802 320.75 388.095 321.069 388.521 321.357C388.947 321.646 389.415 321.841 389.924 321.943C390.44 322.039 390.945 322.041 391.439 321.948C391.932 321.845 392.376 321.654 392.769 321.377ZM399.798 317.34C399.349 317.657 398.853 317.919 398.311 318.125C397.769 318.321 397.283 318.434 396.852 318.463L396.593 317.822C397.009 317.783 397.453 317.68 397.925 317.514C398.389 317.343 398.811 317.123 399.19 316.856C399.696 316.499 399.99 316.183 400.072 315.909C400.155 315.625 400.05 315.384 399.759 315.187C399.553 315.048 399.327 314.987 399.08 315.004C398.826 315.017 398.568 315.076 398.308 315.181C398.04 315.282 397.71 315.432 397.316 315.631C396.781 315.891 396.334 316.089 395.975 316.225C395.609 316.356 395.221 316.418 394.812 316.413C394.409 316.403 394.019 316.271 393.643 316.016C393.174 315.699 392.984 315.303 393.072 314.829C393.16 314.354 393.547 313.874 394.236 313.388C394.594 313.135 395.001 312.916 395.459 312.73C395.909 312.539 396.328 312.415 396.716 312.357L396.997 312.999C396.221 313.105 395.517 313.381 394.885 313.827C394.408 314.165 394.132 314.478 394.056 314.766C393.988 315.05 394.092 315.286 394.369 315.473C394.583 315.617 394.82 315.686 395.081 315.678C395.349 315.665 395.617 315.609 395.885 315.508C396.145 315.403 396.486 315.245 396.908 315.035C397.436 314.781 397.876 314.588 398.228 314.457C398.58 314.326 398.953 314.263 399.349 314.269C399.745 314.274 400.123 314.4 400.486 314.645C400.976 314.976 401.163 315.384 401.047 315.869C400.931 316.343 400.515 316.834 399.798 317.34ZM404.951 313.7C404.502 314.018 404.006 314.279 403.464 314.485C402.922 314.682 402.435 314.795 402.005 314.824L401.745 314.182C402.162 314.143 402.606 314.041 403.077 313.875C403.542 313.703 403.964 313.484 404.343 313.216C404.849 312.859 405.143 312.543 405.225 312.269C405.308 311.985 405.203 311.745 404.912 311.548C404.706 311.408 404.479 311.347 404.232 311.365C403.978 311.377 403.721 311.436 403.461 311.542C403.193 311.642 402.862 311.792 402.468 311.992C401.934 312.252 401.487 312.449 401.128 312.585C400.762 312.716 400.374 312.779 399.964 312.774C399.562 312.763 399.172 312.631 398.796 312.376C398.327 312.059 398.136 311.664 398.224 311.189C398.312 310.715 398.7 310.234 399.388 309.748C399.746 309.495 400.154 309.276 400.612 309.09C401.062 308.9 401.481 308.776 401.869 308.718L402.15 309.359C401.374 309.465 400.67 309.742 400.038 310.188C399.561 310.525 399.284 310.838 399.209 311.127C399.141 311.411 399.245 311.647 399.522 311.834C399.735 311.978 399.972 312.046 400.234 312.038C400.502 312.026 400.77 311.969 401.037 311.868C401.298 311.763 401.639 311.606 402.061 311.396C402.589 311.141 403.028 310.948 403.38 310.818C403.732 310.687 404.106 310.624 404.502 310.629C404.897 310.635 405.276 310.76 405.638 311.005C406.128 311.337 406.315 311.745 406.199 312.229C406.083 312.704 405.667 313.194 404.951 313.7ZM412.584 300.428C413.279 299.937 414.026 299.689 414.824 299.685C415.629 299.677 416.426 299.939 417.214 300.472L420.463 302.67L419.716 303.198L416.541 301.051C415.958 300.657 415.374 300.456 414.788 300.447C414.208 300.434 413.666 300.606 413.161 300.963C412.585 301.37 412.313 301.812 412.345 302.29C412.371 302.764 412.699 303.214 413.331 303.642L416.272 305.63L415.524 306.159L412.349 304.011C411.767 303.617 411.182 303.416 410.596 303.408C410.017 303.395 409.471 303.569 408.958 303.931C408.39 304.333 408.118 304.775 408.143 305.258C408.168 305.732 408.497 306.182 409.129 306.61L412.07 308.598L411.322 309.127L405.718 305.336L406.434 304.831L407.457 305.522C407.313 305.153 407.324 304.782 407.49 304.409C407.656 304.036 407.968 303.688 408.424 303.366C408.887 303.039 409.387 302.823 409.923 302.72C410.466 302.611 411.017 302.63 411.576 302.775C411.41 302.381 411.414 301.981 411.587 301.574C411.76 301.157 412.093 300.775 412.584 300.428ZM424.263 299.131C424.607 298.888 424.863 298.624 425.03 298.339C425.197 298.045 425.262 297.744 425.224 297.436L426.135 297.47C426.188 297.846 426.11 298.215 425.901 298.579C425.692 298.942 425.366 299.28 424.924 299.593C424.355 299.994 423.729 300.27 423.045 300.419C422.354 300.563 421.669 300.576 420.99 300.456C420.311 300.337 419.698 300.092 419.152 299.722C418.605 299.352 418.23 298.939 418.029 298.482C417.834 298.021 417.823 297.562 417.996 297.106C418.169 296.65 418.519 296.236 419.045 295.864C419.537 295.517 420.093 295.281 420.713 295.157C421.341 295.028 421.973 295.019 422.609 295.129C423.253 295.234 423.841 295.457 424.373 295.798L420.719 299.617C421.314 299.825 421.925 299.889 422.553 299.809C423.181 299.719 423.751 299.493 424.263 299.131ZM419.695 296.304C419.309 296.576 419.054 296.884 418.929 297.227C418.805 297.561 418.819 297.9 418.97 298.245C419.121 298.58 419.406 298.889 419.825 299.173C419.932 299.245 420.013 299.295 420.07 299.324L423.21 296.045C422.657 295.788 422.059 295.68 421.417 295.721C420.768 295.757 420.194 295.951 419.695 296.304ZM430.619 294.642C430.963 294.399 431.219 294.135 431.386 293.85C431.553 293.555 431.618 293.254 431.58 292.947L432.491 292.981C432.544 293.356 432.466 293.726 432.257 294.089C432.048 294.453 431.722 294.791 431.28 295.103C430.711 295.505 430.085 295.78 429.401 295.929C428.71 296.074 428.025 296.086 427.346 295.967C426.667 295.847 426.054 295.603 425.508 295.233C424.961 294.863 424.586 294.449 424.385 293.993C424.19 293.531 424.179 293.072 424.352 292.616C424.525 292.16 424.875 291.747 425.401 291.375C425.893 291.027 426.449 290.792 427.069 290.668C427.697 290.539 428.329 290.53 428.965 290.64C429.609 290.745 430.197 290.968 430.729 291.309L427.075 295.128C427.67 295.336 428.281 295.4 428.909 295.32C429.537 295.23 430.107 295.004 430.619 294.642ZM426.051 291.814C425.665 292.087 425.41 292.395 425.285 292.738C425.161 293.071 425.175 293.41 425.326 293.755C425.477 294.091 425.762 294.4 426.181 294.683C426.288 294.755 426.369 294.806 426.426 294.834L429.566 291.556C429.013 291.298 428.415 291.19 427.773 291.231C427.124 291.268 426.55 291.462 426.051 291.814ZM437.61 290.087C437.598 290.273 437.525 290.461 437.393 290.653C437.253 290.84 437.071 291.013 436.846 291.172C436.327 291.539 435.784 291.725 435.219 291.732C434.654 291.738 434.113 291.566 433.594 291.215L428.342 287.662L429.09 287.134L430.315 287.963L431.989 286.78L432.629 287.213L430.954 288.395L434.299 290.658C434.633 290.884 434.97 291 435.309 291.006C435.641 291.007 435.961 290.898 436.27 290.68C436.607 290.442 436.785 290.184 436.804 289.905L437.61 290.087ZM433.703 285.57L434.451 285.042L440.054 288.832L439.307 289.36L433.703 285.57ZM432.857 284.473C432.702 284.583 432.519 284.638 432.307 284.641C432.095 284.643 431.915 284.594 431.766 284.493C431.624 284.397 431.552 284.275 431.551 284.129C431.55 283.983 431.626 283.855 431.781 283.746C431.935 283.637 432.118 283.581 432.33 283.578C432.535 283.571 432.708 283.616 432.85 283.712C433.007 283.818 433.085 283.944 433.087 284.09C433.088 284.237 433.011 284.364 432.857 284.473ZM439.311 281.55C440.006 281.059 440.763 280.809 441.582 280.8C442.402 280.781 443.202 281.036 443.983 281.564L447.232 283.762L446.485 284.29L443.31 282.143C442.727 281.749 442.14 281.55 441.546 281.547C440.953 281.544 440.39 281.731 439.856 282.108C439.259 282.529 438.966 282.986 438.978 283.479C438.989 283.963 439.31 284.418 439.942 284.846L442.883 286.834L442.135 287.362L436.531 283.572L437.247 283.066L438.281 283.765C438.143 283.391 438.161 283.015 438.335 282.637C438.508 282.249 438.834 281.887 439.311 281.55ZM448.808 274.901L453.73 278.23C454.682 278.874 455.153 279.513 455.144 280.148C455.15 280.782 454.689 281.427 453.762 282.081C453.25 282.443 452.684 282.735 452.064 282.957C451.458 283.178 450.877 283.299 450.319 283.32L450.123 282.663C450.631 282.638 451.142 282.537 451.656 282.361C452.177 282.179 452.649 281.94 453.07 281.642C453.772 281.146 454.121 280.669 454.117 280.21C454.121 279.756 453.774 279.294 453.078 278.823L452.364 278.34C452.488 278.744 452.452 279.142 452.258 279.535C452.07 279.923 451.748 280.278 451.292 280.6C450.773 280.967 450.185 281.225 449.529 281.374C448.874 281.513 448.217 281.53 447.559 281.425C446.902 281.31 446.31 281.075 445.784 280.719C445.259 280.364 444.909 279.962 444.736 279.515C444.57 279.063 444.584 278.611 444.778 278.16C444.972 277.709 445.332 277.297 445.859 276.925C446.329 276.593 446.85 276.358 447.421 276.219C447.992 276.081 448.574 276.053 449.168 276.134L448.092 275.407L448.808 274.901ZM450.695 280.094C451.095 279.811 451.371 279.498 451.524 279.155C451.669 278.807 451.673 278.465 451.536 278.129C451.406 277.789 451.142 277.485 450.745 277.215C450.347 276.946 449.904 276.773 449.416 276.696C448.928 276.608 448.437 276.621 447.944 276.734C447.451 276.837 447 277.032 446.593 277.32C446.193 277.602 445.916 277.915 445.764 278.259C445.618 278.597 445.611 278.937 445.741 279.277C445.878 279.612 446.145 279.915 446.543 280.184C446.94 280.453 447.383 280.631 447.871 280.718C448.366 280.801 448.861 280.79 449.354 280.687C449.848 280.574 450.294 280.377 450.695 280.094Z" fill="#BDBBBB"/>
<path d="M417.791 352.582C417.369 352.879 416.887 353.092 416.345 353.22C415.809 353.343 415.258 353.369 414.693 353.297L414.602 352.624C415.104 352.682 415.567 352.67 415.99 352.587C416.413 352.504 416.782 352.351 417.098 352.128C418.018 351.478 417.931 350.784 416.837 350.044L411.255 346.268L408.559 348.172L407.877 347.711L411.342 345.264L417.574 349.479C418.355 350.008 418.759 350.533 418.784 351.055C418.824 351.577 418.493 352.086 417.791 352.582ZM423.308 347.197C422.774 347.574 422.172 347.832 421.502 347.971C420.826 348.106 420.148 348.113 419.469 347.994C418.79 347.874 418.177 347.63 417.63 347.26C417.083 346.89 416.716 346.472 416.528 346.005C416.341 345.538 416.34 345.072 416.527 344.606C416.714 344.14 417.074 343.719 417.608 343.342C418.141 342.965 418.743 342.707 419.413 342.568C420.083 342.429 420.753 342.421 421.425 342.546C422.104 342.665 422.717 342.91 423.264 343.28C423.811 343.65 424.178 344.068 424.366 344.535C424.56 344.996 424.568 345.462 424.388 345.933C424.201 346.399 423.841 346.82 423.308 347.197ZM422.636 346.743C423.03 346.466 423.292 346.158 423.423 345.819C423.554 345.471 423.541 345.122 423.383 344.773C423.224 344.423 422.932 344.104 422.506 343.816C422.08 343.527 421.612 343.332 421.103 343.23C420.593 343.129 420.092 343.129 419.598 343.232C419.105 343.326 418.661 343.511 418.268 343.789C417.875 344.067 417.613 344.379 417.482 344.728C417.35 345.066 417.36 345.412 417.511 345.767C417.67 346.117 417.962 346.436 418.388 346.724C418.814 347.012 419.282 347.207 419.791 347.309C420.308 347.406 420.813 347.408 421.306 347.314C421.8 347.211 422.243 347.021 422.636 346.743ZM424.769 338.284C425.464 337.793 426.221 337.543 427.04 337.534C427.859 337.515 428.659 337.77 429.441 338.299L432.69 340.496L431.942 341.025L428.768 338.877C428.185 338.483 427.597 338.285 427.004 338.281C426.411 338.278 425.847 338.465 425.314 338.842C424.717 339.264 424.424 339.721 424.435 340.214C424.446 340.697 424.768 341.152 425.4 341.58L428.341 343.569L427.593 344.097L419.688 338.75L420.435 338.222L423.717 340.441C423.594 340.077 423.622 339.708 423.803 339.335C423.983 338.962 424.305 338.611 424.769 338.284ZM431.896 333.25C432.591 332.759 433.348 332.509 434.168 332.5C434.987 332.481 435.787 332.736 436.568 333.264L439.817 335.462L439.07 335.99L435.895 333.843C435.312 333.449 434.725 333.251 434.131 333.247C433.538 333.244 432.975 333.431 432.441 333.808C431.844 334.229 431.551 334.687 431.563 335.179C431.574 335.663 431.895 336.118 432.527 336.546L435.468 338.534L434.72 339.063L429.116 335.272L429.832 334.766L430.866 335.465C430.729 335.091 430.747 334.715 430.92 334.337C431.093 333.949 431.419 333.587 431.896 333.25ZM447.178 324.857C447.798 324.635 448.387 324.543 448.945 324.581C449.511 324.614 450.013 324.779 450.454 325.077C450.887 325.37 451.151 325.709 451.246 326.094C451.334 326.473 451.249 326.877 450.991 327.305C450.734 327.722 450.313 328.137 449.731 328.549C448.846 329.174 447.959 329.535 447.07 329.633C446.181 329.73 445.406 329.556 444.746 329.109C444.298 328.806 444.041 328.467 443.974 328.092C443.908 327.707 444.028 327.298 444.335 326.865C443.807 327.032 443.306 327.091 442.832 327.043C442.351 326.99 441.919 326.833 441.536 326.574C440.932 326.165 440.684 325.677 440.793 325.11C440.908 324.538 441.359 323.974 442.145 323.418C442.665 323.051 443.199 322.787 443.749 322.624C444.298 322.452 444.831 322.39 445.347 322.438C445.863 322.486 446.32 322.645 446.717 322.914C447.101 323.173 447.333 323.471 447.413 323.807C447.487 324.138 447.408 324.488 447.178 324.857ZM442.315 326.053C442.727 326.331 443.215 326.438 443.78 326.373C444.344 326.309 444.911 326.075 445.48 325.674C446.048 325.272 446.373 324.875 446.455 324.484C446.543 324.087 446.385 323.752 445.98 323.479C445.561 323.195 445.063 323.091 444.484 323.165C443.913 323.235 443.35 323.466 442.795 323.858C442.233 324.254 441.908 324.651 441.82 325.047C441.738 325.439 441.903 325.774 442.315 326.053ZM449.081 328.109C449.734 327.648 450.108 327.197 450.203 326.757C450.305 326.311 450.125 325.933 449.664 325.62C449.202 325.308 448.654 325.194 448.019 325.28C447.384 325.355 446.74 325.623 446.087 326.084C445.441 326.541 445.067 326.991 444.965 327.437C444.862 327.872 445.042 328.246 445.504 328.559C445.972 328.876 446.524 328.997 447.159 328.921C447.787 328.841 448.428 328.57 449.081 328.109ZM449.665 322.305C449.51 322.414 449.32 322.47 449.094 322.473C448.875 322.47 448.684 322.414 448.52 322.303C448.357 322.193 448.275 322.064 448.274 321.918C448.272 321.762 448.349 321.629 448.503 321.52C448.658 321.411 448.848 321.355 449.074 321.352C449.293 321.345 449.484 321.397 449.647 321.507C449.811 321.618 449.893 321.751 449.894 321.907C449.896 322.063 449.819 322.196 449.665 322.305ZM454.203 325.375C454.049 325.484 453.858 325.54 453.632 325.542C453.413 325.54 453.222 325.483 453.059 325.373C452.896 325.262 452.813 325.134 452.812 324.987C452.811 324.831 452.887 324.699 453.042 324.589C453.196 324.48 453.387 324.425 453.613 324.422C453.831 324.415 454.023 324.466 454.186 324.577C454.349 324.687 454.432 324.821 454.433 324.977C454.434 325.133 454.358 325.266 454.203 325.375ZM454.058 319.511C454.873 318.995 455.672 318.725 456.456 318.701C457.24 318.668 457.937 318.859 458.548 319.272C458.974 319.56 459.252 319.889 459.382 320.258C459.505 320.623 459.463 321.012 459.254 321.424C459.046 321.837 458.654 322.246 458.078 322.653C457.544 323.03 456.954 323.329 456.306 323.551C455.658 323.763 455.044 323.872 454.465 323.879L454.227 323.208C454.728 323.207 455.264 323.118 455.835 322.941C456.398 322.759 456.911 322.504 457.375 322.177C457.979 321.751 458.314 321.332 458.381 320.921C458.441 320.506 458.237 320.139 457.768 319.822C457.307 319.51 456.779 319.381 456.187 319.437C455.594 319.492 454.964 319.755 454.297 320.226L453.77 320.598L453.206 320.216L452.66 317.022L448.89 319.685L448.208 319.224L452.947 315.877L453.49 316.244L454.058 319.511ZM464.76 317.933C464.191 318.335 463.529 318.591 462.775 318.702C462.027 318.808 461.243 318.758 460.422 318.552C459.601 318.337 458.803 317.967 458.029 317.443C457.255 316.92 456.706 316.379 456.384 315.821C456.061 315.253 455.968 314.71 456.105 314.191C456.249 313.667 456.606 313.204 457.174 312.803C457.743 312.401 458.401 312.147 459.149 312.041C459.904 311.93 460.695 311.98 461.523 312.191C462.344 312.397 463.142 312.761 463.916 313.285C464.69 313.809 465.238 314.354 465.561 314.922C465.876 315.485 465.962 316.028 465.818 316.552C465.681 317.071 465.328 317.531 464.76 317.933ZM464.057 317.458C464.485 317.155 464.74 316.808 464.821 316.417C464.91 316.02 464.814 315.601 464.535 315.16C464.256 314.719 463.79 314.277 463.137 313.836C462.483 313.394 461.834 313.081 461.19 312.898C460.546 312.714 459.938 312.657 459.367 312.727C458.802 312.792 458.306 312.976 457.877 313.278C457.449 313.581 457.191 313.93 457.102 314.327C457.021 314.718 457.12 315.134 457.399 315.576C457.678 316.017 458.144 316.458 458.798 316.9C459.451 317.342 460.1 317.655 460.744 317.838C461.388 318.021 461.993 318.081 462.557 318.016C463.128 317.946 463.628 317.76 464.057 317.458Z" fill="#BDBBBB"/>
<path d="M593.881 469.702C594.225 469.459 594.481 469.195 594.648 468.91C594.815 468.615 594.88 468.314 594.842 468.007L595.753 468.041C595.806 468.416 595.728 468.785 595.519 469.149C595.31 469.513 594.984 469.851 594.542 470.163C593.973 470.565 593.347 470.84 592.663 470.989C591.972 471.134 591.287 471.146 590.608 471.026C589.929 470.907 589.317 470.662 588.77 470.292C588.223 469.922 587.849 469.509 587.647 469.053C587.452 468.591 587.442 468.132 587.614 467.676C587.787 467.22 588.137 466.806 588.663 466.434C589.155 466.087 589.711 465.852 590.331 465.728C590.959 465.599 591.591 465.589 592.227 465.699C592.871 465.805 593.459 466.028 593.991 466.368L590.337 470.187C590.932 470.396 591.543 470.46 592.171 470.379C592.799 470.29 593.369 470.064 593.881 469.702ZM589.313 466.874C588.927 467.147 588.672 467.455 588.548 467.798C588.423 468.131 588.437 468.47 588.588 468.815C588.739 469.15 589.024 469.46 589.443 469.743C589.55 469.815 589.631 469.866 589.688 469.894L592.828 466.616C592.275 466.358 591.677 466.25 591.035 466.291C590.386 466.328 589.812 466.522 589.313 466.874ZM595.662 461.491C596.357 461 597.114 460.75 597.933 460.741C598.752 460.722 599.552 460.977 600.334 461.506L603.583 463.704L602.835 464.232L599.66 462.084C599.078 461.69 598.49 461.492 597.897 461.489C597.304 461.485 596.74 461.672 596.207 462.049C595.61 462.471 595.317 462.928 595.328 463.421C595.339 463.904 595.661 464.359 596.293 464.787L599.233 466.776L598.486 467.304L592.882 463.514L593.598 463.008L594.631 463.707C594.494 463.332 594.512 462.956 594.686 462.578C594.859 462.191 595.184 461.828 595.662 461.491ZM608 460.112C607.987 460.298 607.915 460.487 607.782 460.679C607.642 460.866 607.46 461.039 607.236 461.197C606.716 461.564 606.174 461.751 605.609 461.757C605.044 461.763 604.502 461.591 603.984 461.24L598.731 457.688L599.479 457.16L600.704 457.988L602.379 456.806L603.018 457.238L601.344 458.421L604.689 460.683C605.023 460.909 605.359 461.025 605.698 461.031C606.03 461.032 606.35 460.924 606.659 460.706C606.996 460.468 607.174 460.209 607.193 459.931L608 460.112ZM611.252 457.432C611.596 457.189 611.852 456.925 612.019 456.64C612.186 456.345 612.251 456.044 612.213 455.737L613.124 455.771C613.177 456.146 613.099 456.516 612.89 456.879C612.681 457.243 612.355 457.581 611.913 457.893C611.344 458.295 610.718 458.571 610.034 458.72C609.343 458.864 608.658 458.876 607.979 458.757C607.3 458.637 606.688 458.393 606.141 458.023C605.594 457.653 605.22 457.24 605.018 456.783C604.823 456.321 604.813 455.862 604.985 455.407C605.158 454.951 605.508 454.537 606.034 454.165C606.526 453.818 607.082 453.582 607.702 453.458C608.33 453.329 608.962 453.32 609.598 453.43C610.242 453.535 610.83 453.758 611.362 454.099L607.708 457.918C608.303 458.126 608.914 458.19 609.542 458.11C610.17 458.02 610.74 457.794 611.252 457.432ZM606.684 454.604C606.298 454.877 606.043 455.185 605.919 455.528C605.794 455.861 605.808 456.201 605.959 456.546C606.11 456.881 606.395 457.19 606.814 457.474C606.921 457.546 607.002 457.596 607.059 457.625L610.199 454.346C609.646 454.088 609.048 453.98 608.406 454.022C607.757 454.058 607.183 454.252 606.684 454.604ZM612.066 451.48C611.865 451.102 611.841 450.726 611.993 450.353C612.153 449.976 612.489 449.606 613.001 449.244L613.736 449.741L613.547 449.86C612.964 450.272 612.689 450.717 612.721 451.195C612.753 451.673 613.096 452.133 613.749 452.575L616.604 454.506L615.857 455.034L610.253 451.244L610.969 450.738L612.066 451.48ZM620.108 452.105C619.953 452.214 619.763 452.27 619.537 452.273C619.318 452.27 619.127 452.214 618.964 452.103C618.8 451.993 618.718 451.864 618.717 451.718C618.716 451.562 618.792 451.429 618.947 451.32C619.101 451.211 619.291 451.155 619.517 451.152C619.736 451.145 619.927 451.197 620.091 451.307C620.254 451.418 620.336 451.551 620.338 451.707C620.339 451.863 620.262 451.996 620.108 452.105ZM622.34 450.529C622.185 450.638 621.995 450.694 621.769 450.696C621.55 450.694 621.359 450.637 621.196 450.527C621.032 450.416 620.95 450.288 620.949 450.141C620.947 449.985 621.024 449.853 621.178 449.743C621.333 449.634 621.523 449.579 621.749 449.576C621.968 449.569 622.159 449.62 622.322 449.731C622.486 449.841 622.568 449.975 622.569 450.131C622.571 450.287 622.494 450.42 622.34 450.529ZM624.572 448.952C624.417 449.062 624.227 449.117 624.001 449.12C623.782 449.117 623.591 449.061 623.427 448.95C623.264 448.84 623.182 448.711 623.181 448.565C623.179 448.409 623.256 448.276 623.41 448.167C623.565 448.058 623.755 448.002 623.981 448C624.2 447.992 624.391 448.044 624.554 448.154C624.718 448.265 624.8 448.398 624.801 448.554C624.803 448.711 624.726 448.843 624.572 448.952Z" fill="#BDBBBB"/>
<path d="M502.083 282.559C504.453 284.162 504.349 286.973 501.702 288.843C499.055 290.713 494.991 290.845 492.621 289.242C490.251 287.639 490.355 284.828 493.002 282.958C495.648 281.089 499.713 280.956 502.083 282.559Z" fill="white" stroke="#BDBBBB"/>
<g clip-path="url(#clip1_33_98)">
<path d="M506.49 272.864C503.658 274.865 503.49 277.936 506.115 279.712C508.739 281.487 513.179 281.304 516.011 279.304C518.843 277.303 519.011 274.232 516.386 272.456C513.762 270.681 509.322 270.864 506.49 272.864Z" fill="#FF5A4E"/>
<path d="M514.334 275.554C514.656 275.541 514.907 275.711 514.895 275.934C514.889 276.045 514.818 276.149 514.708 276.226C514.599 276.304 514.45 276.355 514.29 276.361L511.811 276.463L511.717 278.178C511.711 278.289 511.641 278.393 511.531 278.47C511.421 278.548 511.273 278.599 511.112 278.606C510.79 278.619 510.539 278.449 510.551 278.226L510.645 276.511L508.167 276.614C507.845 276.627 507.594 276.457 507.606 276.234C507.619 276.011 507.889 275.82 508.211 275.807L510.69 275.705L510.784 273.99C510.796 273.767 511.066 273.576 511.389 273.562C511.711 273.549 511.962 273.719 511.95 273.942L511.856 275.657L514.334 275.554Z" fill="#FAFAFA"/>
</g>
<path d="M469.041 260.209C471.411 261.812 471.308 264.623 468.661 266.493C466.014 268.362 461.949 268.495 459.58 266.892C457.21 265.289 457.313 262.477 459.96 260.608C462.607 258.738 466.672 258.606 469.041 260.209Z" fill="white" stroke="#BDBBBB"/>
<g clip-path="url(#clip2_33_98)">
<path d="M473.447 250.513C470.615 252.514 470.446 255.585 473.071 257.361C475.696 259.136 480.135 258.953 482.967 256.953C485.799 254.952 485.968 251.881 483.343 250.105C480.718 248.33 476.279 248.513 473.447 250.513Z" fill="#FF5A4E"/>
<path d="M481.291 253.203C481.613 253.19 481.864 253.36 481.852 253.583C481.845 253.694 481.775 253.798 481.665 253.875C481.556 253.953 481.407 254.004 481.246 254.01L478.768 254.112L478.674 255.827C478.668 255.938 478.597 256.042 478.488 256.119C478.378 256.197 478.23 256.248 478.069 256.255C477.746 256.268 477.496 256.098 477.508 255.875L477.602 254.161L475.124 254.263C474.801 254.276 474.551 254.106 474.563 253.883C474.575 253.66 474.846 253.469 475.168 253.456L477.646 253.354L477.74 251.639C477.753 251.416 478.023 251.225 478.346 251.212C478.668 251.198 478.919 251.368 478.907 251.591L478.812 253.306L481.291 253.203Z" fill="#FAFAFA"/>
</g>
<g filter="url(#filter3_d_33_98)">
<rect width="154.391" height="27.334" rx="13.667" transform="matrix(0.810124 -0.572212 0.819518 0.554298 433.644 377.737)" fill="white" fill-opacity="0.5" shape-rendering="crispEdges"/>
</g>
<path d="M463.463 372.961L466.563 375.058C467.394 375.62 467.833 376.189 467.88 376.764C467.921 377.335 467.558 377.89 466.793 378.431C466.308 378.773 465.809 378.998 465.294 379.107C464.779 379.205 464.228 379.177 463.641 379.022C463.87 379.42 463.919 379.798 463.788 380.156C463.657 380.514 463.345 380.866 462.854 381.213C462.089 381.754 461.293 382.016 460.466 382.001C459.633 381.981 458.8 381.69 457.969 381.128L454.869 379.031L455.617 378.503L458.653 380.556C459.314 381.003 459.93 381.245 460.503 381.283C461.068 381.316 461.624 381.139 462.172 380.752C462.713 380.37 462.953 379.979 462.893 379.58C462.84 379.175 462.48 378.747 461.812 378.295L458.797 376.256L459.545 375.728L462.56 377.767C463.228 378.219 463.851 378.461 464.431 378.494C465.01 378.526 465.574 378.349 466.121 377.962C466.655 377.586 466.892 377.202 466.832 376.812C466.772 376.413 466.412 375.989 465.752 375.543L462.715 373.489L463.463 372.961ZM470.55 367.955L476.154 371.745L475.438 372.251L474.33 371.502C474.481 371.915 474.471 372.321 474.297 372.718C474.131 373.11 473.816 373.47 473.353 373.797C472.833 374.164 472.242 374.415 471.579 374.549C470.917 374.683 470.249 374.688 469.577 374.564C468.905 374.439 468.292 374.19 467.738 373.815C467.184 373.44 466.81 373.022 466.616 372.561C466.421 372.099 466.417 371.64 466.604 371.184C466.784 370.723 467.134 370.309 467.653 369.942C468.102 369.625 468.602 369.405 469.152 369.281C469.702 369.148 470.273 369.123 470.867 369.204L469.802 368.483L470.55 367.955ZM472.745 373.299C473.131 373.026 473.39 372.721 473.521 372.382C473.652 372.034 473.639 371.685 473.481 371.335C473.329 370.981 473.041 370.659 472.615 370.371C472.188 370.083 471.717 369.89 471.201 369.793C470.691 369.692 470.19 369.692 469.696 369.795C469.203 369.889 468.763 370.072 468.377 370.344C467.984 370.622 467.721 370.935 467.59 371.283C467.459 371.621 467.469 371.968 467.62 372.323C467.778 372.672 468.07 372.991 468.497 373.28C468.923 373.568 469.391 373.763 469.9 373.865C470.416 373.961 470.921 373.963 471.415 373.87C471.908 373.767 472.352 373.577 472.745 373.299ZM479.774 369.262C479.325 369.579 478.829 369.841 478.287 370.047C477.745 370.243 477.259 370.356 476.828 370.385L476.568 369.744C476.985 369.705 477.429 369.602 477.901 369.436C478.365 369.265 478.787 369.046 479.166 368.778C479.672 368.421 479.966 368.105 480.048 367.831C480.131 367.547 480.026 367.306 479.735 367.109C479.529 366.97 479.303 366.909 479.056 366.926C478.802 366.939 478.544 366.998 478.284 367.103C478.016 367.204 477.686 367.354 477.292 367.553C476.757 367.813 476.31 368.011 475.951 368.147C475.585 368.278 475.197 368.341 474.788 368.335C474.385 368.325 473.995 368.193 473.619 367.938C473.15 367.621 472.96 367.225 473.048 366.751C473.135 366.276 473.523 365.796 474.212 365.31C474.57 365.057 474.977 364.838 475.435 364.652C475.885 364.462 476.304 364.337 476.692 364.279L476.973 364.921C476.197 365.027 475.493 365.303 474.861 365.749C474.384 366.087 474.108 366.4 474.032 366.689C473.964 366.972 474.068 367.208 474.345 367.395C474.559 367.54 474.796 367.608 475.057 367.6C475.325 367.587 475.593 367.531 475.861 367.43C476.121 367.325 476.462 367.167 476.884 366.957C477.412 366.703 477.852 366.51 478.204 366.379C478.556 366.248 478.929 366.186 479.325 366.191C479.721 366.196 480.099 366.322 480.462 366.567C480.952 366.898 481.139 367.306 481.023 367.791C480.907 368.266 480.49 368.756 479.774 369.262ZM480.565 360.822C481.26 360.331 482.017 360.081 482.836 360.072C483.655 360.054 484.455 360.309 485.237 360.837L488.486 363.035L487.738 363.563L484.564 361.416C483.981 361.022 483.393 360.823 482.8 360.82C482.207 360.817 481.643 361.003 481.11 361.38C480.513 361.802 480.22 362.259 480.231 362.752C480.242 363.235 480.564 363.691 481.196 364.118L484.137 366.107L483.389 366.635L475.484 361.288L476.231 360.76L479.513 362.98C479.39 362.615 479.418 362.246 479.599 361.873C479.779 361.5 480.101 361.15 480.565 360.822ZM490.423 350.737L498.328 356.083L497.612 356.589L496.504 355.84C496.655 356.253 496.645 356.658 496.471 357.056C496.305 357.448 495.99 357.808 495.527 358.135C495.007 358.502 494.416 358.753 493.753 358.887C493.091 359.021 492.423 359.026 491.751 358.902C491.079 358.777 490.466 358.528 489.912 358.153C489.358 357.778 488.984 357.36 488.79 356.899C488.595 356.437 488.591 355.978 488.778 355.522C488.958 355.061 489.308 354.647 489.827 354.28C490.276 353.963 490.776 353.742 491.326 353.619C491.876 353.486 492.447 353.46 493.041 353.542L489.675 351.265L490.423 350.737ZM494.919 357.637C495.305 357.364 495.564 357.058 495.695 356.72C495.826 356.372 495.813 356.023 495.655 355.673C495.503 355.319 495.215 354.997 494.789 354.709C494.362 354.421 493.891 354.228 493.375 354.131C492.865 354.03 492.364 354.03 491.87 354.133C491.377 354.227 490.937 354.41 490.551 354.682C490.158 354.96 489.895 355.273 489.764 355.621C489.633 355.959 489.643 356.306 489.794 356.661C489.952 357.01 490.244 357.329 490.671 357.618C491.097 357.906 491.565 358.101 492.074 358.203C492.59 358.299 493.095 358.301 493.589 358.208C494.082 358.105 494.526 357.914 494.919 357.637ZM494.806 350.822L495.554 350.294L501.158 354.084L500.41 354.612L494.806 350.822ZM493.96 349.726C493.806 349.835 493.623 349.891 493.411 349.893C493.199 349.895 493.018 349.846 492.869 349.745C492.727 349.649 492.656 349.528 492.654 349.381C492.653 349.235 492.73 349.107 492.884 348.998C493.039 348.889 493.222 348.833 493.434 348.831C493.638 348.824 493.812 348.868 493.954 348.964C494.11 349.07 494.189 349.196 494.19 349.342C494.191 349.489 494.115 349.617 493.96 349.726ZM504.777 351.602C504.327 351.919 503.832 352.181 503.29 352.387C502.747 352.584 502.261 352.696 501.83 352.725L501.571 352.084C501.987 352.045 502.431 351.943 502.903 351.776C503.368 351.605 503.79 351.386 504.169 351.118C504.674 350.761 504.968 350.445 505.051 350.171C505.133 349.887 505.029 349.646 504.738 349.449C504.532 349.31 504.305 349.249 504.058 349.266C503.804 349.279 503.547 349.338 503.286 349.443C503.019 349.544 502.688 349.694 502.294 349.894C501.76 350.153 501.313 350.351 500.954 350.487C500.587 350.618 500.2 350.681 499.79 350.675C499.387 350.665 498.998 350.533 498.621 350.278C498.153 349.961 497.962 349.565 498.05 349.091C498.138 348.616 498.526 348.136 499.214 347.65C499.572 347.397 499.98 347.178 500.437 346.992C500.888 346.802 501.307 346.678 501.695 346.62L501.976 347.261C501.2 347.367 500.496 347.643 499.864 348.09C499.386 348.427 499.11 348.74 499.035 349.029C498.966 349.313 499.071 349.548 499.348 349.736C499.561 349.88 499.798 349.948 500.059 349.94C500.327 349.928 500.595 349.871 500.863 349.77C501.123 349.665 501.465 349.507 501.887 349.298C502.414 349.043 502.854 348.85 503.206 348.719C503.558 348.589 503.932 348.526 504.327 348.531C504.723 348.537 505.102 348.662 505.464 348.907C505.954 349.238 506.141 349.646 506.025 350.131C505.909 350.606 505.493 351.096 504.777 351.602ZM505.567 343.163C506.262 342.672 507.019 342.422 507.838 342.413C508.658 342.394 509.458 342.649 510.239 343.177L513.488 345.375L512.741 345.903L509.566 343.756C508.983 343.362 508.396 343.163 507.802 343.16C507.209 343.157 506.646 343.344 506.112 343.72C505.515 344.142 505.222 344.599 505.234 345.092C505.245 345.575 505.566 346.031 506.198 346.458L509.139 348.447L508.391 348.975L500.486 343.629L501.234 343.1L504.515 345.32C504.392 344.955 504.421 344.586 504.601 344.213C504.782 343.84 505.104 343.49 505.567 343.163ZM517.291 341.835C517.635 341.592 517.89 341.328 518.057 341.043C518.225 340.748 518.289 340.447 518.251 340.14L519.163 340.174C519.215 340.549 519.137 340.919 518.928 341.282C518.719 341.646 518.394 341.984 517.951 342.296C517.383 342.698 516.756 342.973 516.073 343.122C515.382 343.267 514.697 343.279 514.018 343.16C513.339 343.04 512.726 342.796 512.179 342.426C511.632 342.056 511.258 341.642 511.056 341.186C510.862 340.724 510.851 340.265 511.024 339.809C511.196 339.353 511.546 338.94 512.073 338.568C512.564 338.22 513.12 337.985 513.741 337.861C514.368 337.732 515 337.723 515.637 337.833C516.28 337.938 516.868 338.161 517.401 338.502L513.746 342.321C514.341 342.529 514.952 342.593 515.58 342.513C516.208 342.423 516.778 342.197 517.291 341.835ZM512.722 339.007C512.336 339.28 512.081 339.588 511.957 339.931C511.833 340.264 511.846 340.603 511.997 340.948C512.148 341.284 512.433 341.593 512.852 341.876C512.959 341.948 513.041 341.999 513.097 342.027L516.237 338.749C515.684 338.491 515.087 338.383 514.444 338.424C513.795 338.461 513.221 338.655 512.722 339.007ZM523.433 338.424C522.984 338.742 522.488 339.003 521.946 339.21C521.404 339.406 520.918 339.519 520.487 339.548L520.227 338.906C520.644 338.867 521.088 338.765 521.56 338.599C522.024 338.428 522.446 338.208 522.825 337.94C523.331 337.583 523.625 337.268 523.707 336.993C523.79 336.709 523.685 336.469 523.394 336.272C523.188 336.132 522.962 336.071 522.715 336.089C522.46 336.101 522.203 336.16 521.943 336.266C521.675 336.366 521.345 336.516 520.951 336.716C520.416 336.976 519.969 337.174 519.61 337.309C519.244 337.44 518.856 337.503 518.447 337.498C518.044 337.488 517.654 337.355 517.278 337.101C516.809 336.784 516.619 336.388 516.707 335.913C516.794 335.439 517.182 334.958 517.87 334.472C518.228 334.22 518.636 334 519.094 333.815C519.544 333.624 519.963 333.5 520.351 333.442L520.632 334.083C519.856 334.189 519.152 334.466 518.52 334.912C518.043 335.249 517.767 335.562 517.691 335.851C517.623 336.135 517.727 336.371 518.004 336.558C518.217 336.702 518.455 336.77 518.716 336.763C518.984 336.75 519.252 336.693 519.52 336.593C519.78 336.487 520.121 336.33 520.543 336.12C521.071 335.865 521.511 335.672 521.863 335.542C522.215 335.411 522.588 335.348 522.984 335.354C523.379 335.359 523.758 335.484 524.121 335.729C524.611 336.061 524.798 336.469 524.682 336.953C524.566 337.428 524.149 337.918 523.433 338.424Z" fill="#BDBBBB" fill-opacity="0.5"/>
<ellipse rx="6.3397" ry="5.80848" transform="matrix(0.810125 -0.572212 0.819518 0.554298 542.153 316.204)" fill="#3FDFCC"/>
<path d="M546.884 312.863C549.253 314.465 549.15 317.277 546.503 319.147C543.856 321.016 539.792 321.149 537.422 319.546C535.052 317.943 535.156 315.131 537.802 313.262C540.449 311.392 544.514 311.26 546.884 312.863Z" stroke="#BDBBBB" stroke-opacity="0.5"/>
<g clip-path="url(#clip3_33_98)">
<path d="M551.291 303.165C548.459 305.165 548.29 308.237 550.915 310.012C553.54 311.788 557.979 311.605 560.811 309.604C563.643 307.604 563.812 304.532 561.187 302.757C558.562 300.982 554.123 301.165 551.291 303.165Z" fill="#FF5A4E" fill-opacity="0.5"/>
<path d="M559.134 305.855C559.457 305.842 559.707 306.011 559.695 306.234C559.689 306.346 559.618 306.449 559.509 306.527C559.399 306.604 559.251 306.655 559.09 306.662L556.612 306.764L556.518 308.479C556.512 308.59 556.441 308.694 556.331 308.771C556.222 308.848 556.073 308.899 555.913 308.906C555.59 308.919 555.339 308.75 555.352 308.527L555.446 306.812L552.968 306.914C552.645 306.927 552.395 306.758 552.407 306.535C552.419 306.312 552.689 306.121 553.012 306.107L555.49 306.005L555.584 304.291C555.596 304.067 555.867 303.876 556.189 303.863C556.512 303.85 556.762 304.019 556.75 304.242L556.656 305.957L559.134 305.855Z" fill="#FAFAFA" fill-opacity="0.5"/>
</g>
<ellipse rx="13.0523" ry="11.9586" transform="matrix(0.810125 -0.572212 0.819518 0.554298 686.446 396.252)" fill="#3FDFCC"/>
<rect width="2.98339" height="15.0337" rx="1.49169" transform="matrix(0.810125 -0.572212 0.819518 0.554298 679.66 392.915)" fill="white"/>
<rect width="2.7334" height="16.4086" rx="1.3667" transform="matrix(-0.819518 -0.554298 0.810125 -0.572212 681.5 401.676)" fill="white"/>
<ellipse rx="29.0638" ry="29.0638" transform="matrix(0.747615 -0.713891 0.867194 0.432513 422.308 418.82)" fill="#CFF5F5"/>
<g clip-path="url(#clip4_33_98)">
<path d="M176.288 280.738L166.573 290.817C166.311 291.088 165.886 291.088 165.624 290.817L161.442 286.478L158.137 289.906L164.446 296.451C164.884 296.905 165.479 297.161 166.098 297.161C166.718 297.161 167.313 296.905 167.751 296.451L179.593 284.166L176.288 280.738Z" fill="white"/>
<g opacity="0.1">
<path opacity="0.1" d="M178.5 283.032L165.998 296.002C165.652 296.36 165.217 296.605 164.748 296.714C165.14 297.003 165.611 297.161 166.098 297.161C166.718 297.161 167.313 296.906 167.751 296.451L179.593 284.166L178.5 283.032Z" fill="black"/>
</g>
</g>
<g clip-path="url(#clip5_33_98)">
<path d="M176.288 311.239L166.573 321.318C166.311 321.589 165.886 321.589 165.624 321.318L161.442 316.979L158.137 320.407L164.446 326.952C164.884 327.407 165.479 327.662 166.098 327.662C166.718 327.662 167.313 327.407 167.751 326.952L179.593 314.667L176.288 311.239Z" fill="white"/>
<g opacity="0.1">
<path opacity="0.1" d="M178.5 313.534L165.998 326.503C165.652 326.862 165.217 327.106 164.748 327.215C165.14 327.504 165.611 327.662 166.098 327.662C166.718 327.662 167.313 327.407 167.751 326.952L179.593 314.667L178.5 313.534Z" fill="black"/>
</g>
</g>
<g clip-path="url(#clip6_33_98)">
<path d="M176.288 341.74L166.573 351.819C166.311 352.091 165.886 352.091 165.624 351.819L161.442 347.48L158.137 350.909L164.446 357.453C164.884 357.908 165.479 358.163 166.098 358.163C166.718 358.163 167.313 357.908 167.751 357.453L179.593 345.168L176.288 341.74Z" fill="white"/>
<g opacity="0.1">
<path opacity="0.1" d="M178.5 344.035L165.998 357.004C165.652 357.363 165.217 357.607 164.748 357.717C165.14 358.005 165.611 358.163 166.098 358.163C166.718 358.163 167.313 357.908 167.751 357.453L179.593 345.169L178.5 344.035Z" fill="black"/>
</g>
</g>
<ellipse cx="195.486" cy="288.537" rx="3.97329" ry="4.12179" fill="white"/>
<ellipse cx="195.486" cy="319.038" rx="3.97329" ry="4.12179" fill="white"/>
<ellipse cx="195.486" cy="349.54" rx="3.97329" ry="4.12179" fill="white"/>
<ellipse cx="216.942" cy="288.537" rx="3.97329" ry="4.12179" fill="white"/>
<ellipse cx="216.942" cy="319.038" rx="3.97329" ry="4.12179" fill="white"/>
<ellipse cx="216.942" cy="349.54" rx="3.97329" ry="4.12179" fill="white"/>
<ellipse cx="238.398" cy="288.537" rx="3.97329" ry="4.12179" fill="white"/>
<ellipse cx="238.398" cy="319.038" rx="3.97329" ry="4.12179" fill="white"/>
<ellipse cx="238.398" cy="349.54" rx="3.97329" ry="4.12179" fill="white"/>
<path d="M100.131 235.406V261H95.7539V235.406H100.131ZM108.164 235.406V238.922H87.791V235.406H108.164ZM107.848 251.701V251.297C107.848 249.926 108.047 248.654 108.445 247.482C108.844 246.299 109.418 245.273 110.168 244.406C110.93 243.527 111.855 242.848 112.945 242.367C114.047 241.875 115.289 241.629 116.672 241.629C118.066 241.629 119.309 241.875 120.398 242.367C121.5 242.848 122.432 243.527 123.193 244.406C123.955 245.273 124.535 246.299 124.934 247.482C125.332 248.654 125.531 249.926 125.531 251.297V251.701C125.531 253.072 125.332 254.344 124.934 255.516C124.535 256.688 123.955 257.713 123.193 258.592C122.432 259.459 121.506 260.139 120.416 260.631C119.326 261.111 118.09 261.352 116.707 261.352C115.312 261.352 114.064 261.111 112.963 260.631C111.873 260.139 110.947 259.459 110.186 258.592C109.424 257.713 108.844 256.688 108.445 255.516C108.047 254.344 107.848 253.072 107.848 251.701ZM112.084 251.297V251.701C112.084 252.557 112.172 253.365 112.348 254.127C112.523 254.889 112.799 255.557 113.174 256.131C113.549 256.705 114.029 257.156 114.615 257.484C115.201 257.812 115.898 257.977 116.707 257.977C117.492 257.977 118.172 257.812 118.746 257.484C119.332 257.156 119.812 256.705 120.188 256.131C120.562 255.557 120.838 254.889 121.014 254.127C121.201 253.365 121.295 252.557 121.295 251.701V251.297C121.295 250.453 121.201 249.656 121.014 248.906C120.838 248.145 120.557 247.471 120.17 246.885C119.795 246.299 119.314 245.842 118.729 245.514C118.154 245.174 117.469 245.004 116.672 245.004C115.875 245.004 115.184 245.174 114.598 245.514C114.023 245.842 113.549 246.299 113.174 246.885C112.799 247.471 112.523 248.145 112.348 248.906C112.172 249.656 112.084 250.453 112.084 251.297ZM140.684 257.062V234H144.938V261H141.088L140.684 257.062ZM128.309 251.701V251.332C128.309 249.891 128.479 248.578 128.818 247.395C129.158 246.199 129.65 245.174 130.295 244.318C130.939 243.451 131.725 242.789 132.65 242.332C133.576 241.863 134.619 241.629 135.779 241.629C136.928 241.629 137.936 241.852 138.803 242.297C139.67 242.742 140.408 243.381 141.018 244.213C141.627 245.033 142.113 246.018 142.477 247.166C142.84 248.303 143.098 249.568 143.25 250.963V252.141C143.098 253.5 142.84 254.742 142.477 255.867C142.113 256.992 141.627 257.965 141.018 258.785C140.408 259.605 139.664 260.238 138.785 260.684C137.918 261.129 136.904 261.352 135.744 261.352C134.596 261.352 133.559 261.111 132.633 260.631C131.719 260.15 130.939 259.477 130.295 258.609C129.65 257.742 129.158 256.723 128.818 255.551C128.479 254.367 128.309 253.084 128.309 251.701ZM132.545 251.332V251.701C132.545 252.568 132.621 253.377 132.773 254.127C132.938 254.877 133.189 255.539 133.529 256.113C133.869 256.676 134.309 257.121 134.848 257.449C135.398 257.766 136.055 257.924 136.816 257.924C137.777 257.924 138.568 257.713 139.189 257.291C139.811 256.869 140.297 256.301 140.648 255.586C141.012 254.859 141.258 254.051 141.387 253.16V249.979C141.316 249.287 141.17 248.643 140.947 248.045C140.736 247.447 140.449 246.926 140.086 246.48C139.723 246.023 139.271 245.672 138.732 245.426C138.205 245.168 137.578 245.039 136.852 245.039C136.078 245.039 135.422 245.203 134.883 245.531C134.344 245.859 133.898 246.311 133.547 246.885C133.207 247.459 132.955 248.127 132.791 248.889C132.627 249.65 132.545 250.465 132.545 251.332ZM148.559 251.701V251.297C148.559 249.926 148.758 248.654 149.156 247.482C149.555 246.299 150.129 245.273 150.879 244.406C151.641 243.527 152.566 242.848 153.656 242.367C154.758 241.875 156 241.629 157.383 241.629C158.777 241.629 160.02 241.875 161.109 242.367C162.211 242.848 163.143 243.527 163.904 244.406C164.666 245.273 165.246 246.299 165.645 247.482C166.043 248.654 166.242 249.926 166.242 251.297V251.701C166.242 253.072 166.043 254.344 165.645 255.516C165.246 256.688 164.666 257.713 163.904 258.592C163.143 259.459 162.217 260.139 161.127 260.631C160.037 261.111 158.801 261.352 157.418 261.352C156.023 261.352 154.775 261.111 153.674 260.631C152.584 260.139 151.658 259.459 150.896 258.592C150.135 257.713 149.555 256.688 149.156 255.516C148.758 254.344 148.559 253.072 148.559 251.701ZM152.795 251.297V251.701C152.795 252.557 152.883 253.365 153.059 254.127C153.234 254.889 153.51 255.557 153.885 256.131C154.26 256.705 154.74 257.156 155.326 257.484C155.912 257.812 156.609 257.977 157.418 257.977C158.203 257.977 158.883 257.812 159.457 257.484C160.043 257.156 160.523 256.705 160.898 256.131C161.273 255.557 161.549 254.889 161.725 254.127C161.912 253.365 162.006 252.557 162.006 251.701V251.297C162.006 250.453 161.912 249.656 161.725 248.906C161.549 248.145 161.268 247.471 160.881 246.885C160.506 246.299 160.025 245.842 159.439 245.514C158.865 245.174 158.18 245.004 157.383 245.004C156.586 245.004 155.895 245.174 155.309 245.514C154.734 245.842 154.26 246.299 153.885 246.885C153.51 247.471 153.234 248.145 153.059 248.906C152.883 249.656 152.795 250.453 152.795 251.297ZM183.293 234V261H179.039V234H183.293ZM192.469 241.98V261H188.215V241.98H192.469ZM187.934 236.988C187.934 236.344 188.145 235.811 188.566 235.389C189 234.955 189.598 234.738 190.359 234.738C191.109 234.738 191.701 234.955 192.135 235.389C192.568 235.811 192.785 236.344 192.785 236.988C192.785 237.621 192.568 238.148 192.135 238.57C191.701 238.992 191.109 239.203 190.359 239.203C189.598 239.203 189 238.992 188.566 238.57C188.145 238.148 187.934 237.621 187.934 236.988ZM207.779 255.85C207.779 255.428 207.674 255.047 207.463 254.707C207.252 254.355 206.848 254.039 206.25 253.758C205.664 253.477 204.797 253.219 203.648 252.984C202.641 252.762 201.715 252.498 200.871 252.193C200.039 251.877 199.324 251.496 198.727 251.051C198.129 250.605 197.666 250.078 197.338 249.469C197.01 248.859 196.846 248.156 196.846 247.359C196.846 246.586 197.016 245.854 197.355 245.162C197.695 244.471 198.182 243.861 198.814 243.334C199.447 242.807 200.215 242.391 201.117 242.086C202.031 241.781 203.051 241.629 204.176 241.629C205.77 241.629 207.135 241.898 208.271 242.438C209.42 242.965 210.299 243.686 210.908 244.6C211.518 245.502 211.822 246.521 211.822 247.658H207.586C207.586 247.154 207.457 246.686 207.199 246.252C206.953 245.807 206.578 245.449 206.074 245.18C205.57 244.898 204.938 244.758 204.176 244.758C203.449 244.758 202.846 244.875 202.365 245.109C201.896 245.332 201.545 245.625 201.311 245.988C201.088 246.352 200.977 246.75 200.977 247.184C200.977 247.5 201.035 247.787 201.152 248.045C201.281 248.291 201.492 248.52 201.785 248.73C202.078 248.93 202.477 249.117 202.98 249.293C203.496 249.469 204.141 249.639 204.914 249.803C206.367 250.107 207.615 250.5 208.658 250.98C209.713 251.449 210.521 252.059 211.084 252.809C211.646 253.547 211.928 254.484 211.928 255.621C211.928 256.465 211.746 257.238 211.383 257.941C211.031 258.633 210.516 259.236 209.836 259.752C209.156 260.256 208.342 260.648 207.393 260.93C206.455 261.211 205.4 261.352 204.229 261.352C202.506 261.352 201.047 261.047 199.852 260.438C198.656 259.816 197.748 259.025 197.127 258.064C196.518 257.092 196.213 256.084 196.213 255.041H200.309C200.355 255.826 200.572 256.453 200.959 256.922C201.357 257.379 201.85 257.713 202.436 257.924C203.033 258.123 203.648 258.223 204.281 258.223C205.043 258.223 205.682 258.123 206.197 257.924C206.713 257.713 207.105 257.432 207.375 257.08C207.645 256.717 207.779 256.307 207.779 255.85ZM224.355 241.98V245.074H213.633V241.98H224.355ZM216.727 237.322H220.963V255.744C220.963 256.33 221.045 256.781 221.209 257.098C221.385 257.402 221.625 257.607 221.93 257.713C222.234 257.818 222.592 257.871 223.002 257.871C223.295 257.871 223.576 257.854 223.846 257.818C224.115 257.783 224.332 257.748 224.496 257.713L224.514 260.947C224.162 261.053 223.752 261.146 223.283 261.229C222.826 261.311 222.299 261.352 221.701 261.352C220.729 261.352 219.867 261.182 219.117 260.842C218.367 260.49 217.781 259.922 217.359 259.137C216.938 258.352 216.727 257.309 216.727 256.008V237.322Z" fill="white"/>
<defs>
<filter id="filter0_d_33_98" x="301.514" y="202.614" width="433.849" height="300.817" filterUnits="userSpaceOnUse" color-interpolation-filters="sRGB">
<feFlood flood-opacity="0" result="BackgroundImageFix"/>
<feColorMatrix in="SourceAlpha" type="matrix" values="0 0 0 0 0 0 0 0 0 0 0 0 0 0 0 0 0 0 127 0" result="hardAlpha"/>
<feOffset dy="4"/>
<feGaussianBlur stdDeviation="2"/>
<feComposite in2="hardAlpha" operator="out"/>
<feColorMatrix type="matrix" values="0 0 0 0 0 0 0 0 0 0 0 0 0 0 0 0 0 0 0.25 0"/>
<feBlend mode="normal" in2="BackgroundImageFix" result="effect1_dropShadow_33_98"/>
<feBlend mode="normal" in="SourceGraphic" in2="effect1_dropShadow_33_98" result="shape"/>
</filter>
<filter id="filter1_d_33_98" x="359.771" y="239.876" width="140.43" height="100.479" filterUnits="userSpaceOnUse" color-interpolation-filters="sRGB">
<feFlood flood-opacity="0" result="BackgroundImageFix"/>
<feColorMatrix in="SourceAlpha" type="matrix" values="0 0 0 0 0 0 0 0 0 0 0 0 0 0 0 0 0 0 127 0" result="hardAlpha"/>
<feOffset dx="1" dy="2"/>
<feGaussianBlur stdDeviation="1.5"/>
<feComposite in2="hardAlpha" operator="out"/>
<feColorMatrix type="matrix" values="0 0 0 0 0 0 0 0 0 0 0 0 0 0 0 0 0 0 0.25 0"/>
<feBlend mode="normal" in2="BackgroundImageFix" result="effect1_dropShadow_33_98"/>
<feBlend mode="normal" in="SourceGraphic" in2="effect1_dropShadow_33_98" result="shape"/>
</filter>
<filter id="filter2_d_33_98" x="393.369" y="262.602" width="140.43" height="100.479" filterUnits="userSpaceOnUse" color-interpolation-filters="sRGB">
<feFlood flood-opacity="0" result="BackgroundImageFix"/>
<feColorMatrix in="SourceAlpha" type="matrix" values="0 0 0 0 0 0 0 0 0 0 0 0 0 0 0 0 0 0 127 0" result="hardAlpha"/>
<feOffset dx="1" dy="2"/>
<feGaussianBlur stdDeviation="1.5"/>
<feComposite in2="hardAlpha" operator="out"/>
<feColorMatrix type="matrix" values="0 0 0 0 0 0 0 0 0 0 0 0 0 0 0 0 0 0 0.25 0"/>
<feBlend mode="normal" in2="BackgroundImageFix" result="effect1_dropShadow_33_98"/>
<feBlend mode="normal" in="SourceGraphic" in2="effect1_dropShadow_33_98" result="shape"/>
</filter>
<filter id="filter3_d_33_98" x="438.167" y="292.901" width="140.43" height="100.479" filterUnits="userSpaceOnUse" color-interpolation-filters="sRGB">
<feFlood flood-opacity="0" result="BackgroundImageFix"/>
<feColorMatrix in="SourceAlpha" type="matrix" values="0 0 0 0 0 0 0 0 0 0 0 0 0 0 0 0 0 0 127 0" result="hardAlpha"/>
<feOffset dx="1" dy="2"/>
<feGaussianBlur stdDeviation="1.5"/>
<feComposite in2="hardAlpha" operator="out"/>
<feColorMatrix type="matrix" values="0 0 0 0 0 0 0 0 0 0 0 0 0 0 0 0 0 0 0.25 0"/>
<feBlend mode="normal" in2="BackgroundImageFix" result="effect1_dropShadow_33_98"/>
<feBlend mode="normal" in="SourceGraphic" in2="effect1_dropShadow_33_98" result="shape"/>
</filter>
<clipPath id="clip0_33_98">
<rect width="12.6794" height="11.617" fill="white" transform="matrix(0.810125 -0.572212 0.819518 0.554298 468.311 254.141)"/>
</clipPath>
<clipPath id="clip1_33_98">
<rect width="12.6794" height="11.617" fill="white" transform="matrix(0.810125 -0.572212 0.819518 0.554298 501.354 276.492)"/>
</clipPath>
<clipPath id="clip2_33_98">
<rect width="12.6794" height="11.617" fill="white" transform="matrix(0.810125 -0.572212 0.819518 0.554298 468.311 254.141)"/>
</clipPath>
<clipPath id="clip3_33_98">
<rect width="12.6794" height="11.617" fill="white" transform="matrix(0.810125 -0.572212 0.819518 0.554298 546.155 306.793)"/>
</clipPath>
<clipPath id="clip4_33_98">
<rect width="21.4558" height="22.2577" fill="white" transform="translate(158.137 277.821)"/>
</clipPath>
<clipPath id="clip5_33_98">
<rect width="21.4558" height="22.2577" fill="white" transform="translate(158.137 308.322)"/>
</clipPath>
<clipPath id="clip6_33_98">
<rect width="21.4558" height="22.2577" fill="white" transform="translate(158.137 338.823)"/>
</clipPath>
</defs>
</svg>
