<svg width="18" height="18" viewBox="0 0 18 18" fill="none" xmlns="http://www.w3.org/2000/svg">
<g clip-path="url(#clip0_2_89)">
<path d="M8.80741 14.0919H9.88299C9.88299 14.0919 10.2081 14.0559 10.3735 13.877C10.5265 13.7128 10.5209 13.4045 10.5209 13.4045C10.5209 13.4045 10.4995 11.961 11.1701 11.7484C11.8305 11.5391 12.6788 13.1435 13.5778 13.7611C14.2573 14.228 14.7737 14.1257 14.7737 14.1257L17.178 14.0919C17.178 14.0919 18.4359 14.0143 17.8396 13.0253C17.7912 12.9443 17.4919 12.294 16.0518 10.9574C14.5442 9.55783 14.7467 9.78509 16.5626 7.36504C17.6686 5.89118 18.1107 4.99111 17.9723 4.60633C17.8407 4.23956 17.0273 4.33631 17.0273 4.33631L14.3226 4.35206C14.3226 4.35206 14.1223 4.32506 13.9727 4.41394C13.8275 4.5017 13.7342 4.70421 13.7342 4.70421C13.7342 4.70421 13.3055 5.84505 12.734 6.81487C11.529 8.8614 11.0463 8.96941 10.8494 8.84227C10.3915 8.54638 10.5063 7.65193 10.5063 7.01739C10.5063 5.03386 10.8067 4.20693 9.92012 3.99316C9.62534 3.92228 9.40933 3.87503 8.65665 3.86715C7.69132 3.85703 6.87339 3.87053 6.41098 4.09667C6.10271 4.24743 5.86531 4.58383 6.01045 4.60296C6.18934 4.62658 6.59437 4.71209 6.80926 5.00461C7.08715 5.38152 7.07703 6.22983 7.07703 6.22983C7.07703 6.22983 7.23679 8.56438 6.70463 8.85465C6.33897 9.05379 5.83831 8.64763 4.76386 6.79012C4.21369 5.83942 3.79741 4.78747 3.79741 4.78747C3.79741 4.78747 3.71753 4.59171 3.57464 4.48707C3.40138 4.35994 3.15836 4.31944 3.15836 4.31944L0.58642 4.33519C0.58642 4.33519 0.200516 4.34644 0.0587555 4.51408C-0.0672539 4.66371 0.0486298 4.97198 0.0486298 4.97198C0.0486298 4.97198 2.06253 9.68271 4.34195 12.0578C6.43348 14.2348 8.80741 14.0919 8.80741 14.0919Z" fill="#88CCCA"/>
</g>
<defs>
<clipPath id="clip0_2_89">
<rect width="18" height="18" fill="white"/>
</clipPath>
</defs>
</svg>
